<?xml version="1.0" encoding="UTF-8"?>
<!--Generator: Apple Native CoreSVG 149-->
<!DOCTYPE svg
PUBLIC "-//W3C//DTD SVG 1.1//EN"
       "http://www.w3.org/Graphics/SVG/1.1/DTD/svg11.dtd">
<svg version="1.1" xmlns="http://www.w3.org/2000/svg" xmlns:xlink="http://www.w3.org/1999/xlink" width="3300" height="2200">
 <!--glyph: "uni1009B3.medium", point size: 100.000000, font version: "Version 16.0d18e1", template writer version: "8"-->
 <g id="Notes">
  <rect height="2200" id="artboard" style="fill:white;opacity:1" width="3300" x="0" y="0"/>
  <line id="" style="fill:none;stroke:black;opacity:1;stroke-width:0.5;" x1="263" x2="3036" y1="292" y2="292"/>
  <text style="stroke:none;fill:black;font-family:-apple-system,&quot;SF Pro Display&quot;,&quot;SF Pro Text&quot;,Helvetica,sans-serif;font-weight:bold;" transform="matrix(1 0 0 1 263 322)">Weight/Scale Variations</text>
  <text style="stroke:none;fill:black;font-family:-apple-system,&quot;SF Pro Display&quot;,&quot;SF Pro Text&quot;,Helvetica,sans-serif;text-anchor:middle;" transform="matrix(1 0 0 1 559.711 322)">Ultralight</text>
  <text style="stroke:none;fill:black;font-family:-apple-system,&quot;SF Pro Display&quot;,&quot;SF Pro Text&quot;,Helvetica,sans-serif;text-anchor:middle;" transform="matrix(1 0 0 1 856.422 322)">Thin</text>
  <text style="stroke:none;fill:black;font-family:-apple-system,&quot;SF Pro Display&quot;,&quot;SF Pro Text&quot;,Helvetica,sans-serif;text-anchor:middle;" transform="matrix(1 0 0 1 1153.13 322)">Light</text>
  <text style="stroke:none;fill:black;font-family:-apple-system,&quot;SF Pro Display&quot;,&quot;SF Pro Text&quot;,Helvetica,sans-serif;text-anchor:middle;" transform="matrix(1 0 0 1 1449.84 322)">Regular</text>
  <text style="stroke:none;fill:black;font-family:-apple-system,&quot;SF Pro Display&quot;,&quot;SF Pro Text&quot;,Helvetica,sans-serif;text-anchor:middle;" transform="matrix(1 0 0 1 1746.56 322)">Medium</text>
  <text style="stroke:none;fill:black;font-family:-apple-system,&quot;SF Pro Display&quot;,&quot;SF Pro Text&quot;,Helvetica,sans-serif;text-anchor:middle;" transform="matrix(1 0 0 1 2043.27 322)">Semibold</text>
  <text style="stroke:none;fill:black;font-family:-apple-system,&quot;SF Pro Display&quot;,&quot;SF Pro Text&quot;,Helvetica,sans-serif;text-anchor:middle;" transform="matrix(1 0 0 1 2339.98 322)">Bold</text>
  <text style="stroke:none;fill:black;font-family:-apple-system,&quot;SF Pro Display&quot;,&quot;SF Pro Text&quot;,Helvetica,sans-serif;text-anchor:middle;" transform="matrix(1 0 0 1 2636.69 322)">Heavy</text>
  <text style="stroke:none;fill:black;font-family:-apple-system,&quot;SF Pro Display&quot;,&quot;SF Pro Text&quot;,Helvetica,sans-serif;text-anchor:middle;" transform="matrix(1 0 0 1 2933.4 322)">Black</text>
  <line id="" style="fill:none;stroke:black;opacity:1;stroke-width:0.5;" x1="263" x2="3036" y1="1903" y2="1903"/>
  <g id="" transform="matrix(1 0 0 1 263 1933)">
   <path d="M9.24805 0.830078C13.5547 0.830078 17.1387-2.74414 17.1387-7.05078C17.1387-11.3574 13.5449-14.9316 9.23828-14.9316C4.94141-14.9316 1.36719-11.3574 1.36719-7.05078C1.36719-2.74414 4.95117 0.830078 9.24805 0.830078ZM9.24805-0.654297C5.70312-0.654297 2.87109-3.49609 2.87109-7.05078C2.87109-10.6055 5.69336-13.4473 9.23828-13.4473C12.793-13.4473 15.6348-10.6055 15.6445-7.05078C15.6543-3.49609 12.8027-0.654297 9.24805-0.654297ZM6.39648-6.31836L8.50586-6.31836L8.50586-4.19922C8.50586-3.75977 8.79883-3.45703 9.22852-3.45703C9.67773-3.45703 9.9707-3.75977 9.9707-4.19922L9.9707-6.31836L12.0996-6.31836C12.5391-6.31836 12.8418-6.61133 12.8418-7.04102C12.8418-7.48047 12.5391-7.7832 12.0996-7.7832L9.9707-7.7832L9.9707-9.89258C9.9707-10.3418 9.67773-10.6445 9.22852-10.6445C8.79883-10.6445 8.50586-10.3418 8.50586-9.89258L8.50586-7.7832L6.39648-7.7832C5.94727-7.7832 5.64453-7.48047 5.64453-7.04102C5.64453-6.61133 5.94727-6.31836 6.39648-6.31836Z"/>
  </g>
  <g id="" transform="matrix(1 0 0 1 281.506 1933)">
   <path d="M11.709 2.91016C17.1582 2.91016 21.6699-1.61133 21.6699-7.05078C21.6699-12.5 17.1484-17.0117 11.6992-17.0117C6.25977-17.0117 1.74805-12.5 1.74805-7.05078C1.74805-1.61133 6.26953 2.91016 11.709 2.91016ZM11.709 1.25C7.09961 1.25 3.41797-2.44141 3.41797-7.05078C3.41797-11.6602 7.08984-15.3516 11.6992-15.3516C16.3086-15.3516 20-11.6602 20.0098-7.05078C20.0195-2.44141 16.3184 1.25 11.709 1.25ZM7.98828-6.23047L10.8789-6.23047L10.8789-3.32031C10.8789-2.83203 11.2109-2.5 11.6895-2.5C12.1777-2.5 12.5195-2.83203 12.5195-3.32031L12.5195-6.23047L15.4297-6.23047C15.918-6.23047 16.25-6.5625 16.25-7.04102C16.25-7.5293 15.918-7.87109 15.4297-7.87109L12.5195-7.87109L12.5195-10.7617C12.5195-11.2695 12.1777-11.6016 11.6895-11.6016C11.2109-11.6016 10.8789-11.2598 10.8789-10.7617L10.8789-7.87109L7.98828-7.87109C7.48047-7.87109 7.14844-7.5293 7.14844-7.04102C7.14844-6.5625 7.49023-6.23047 7.98828-6.23047Z"/>
  </g>
  <g id="" transform="matrix(1 0 0 1 304.924 1933)">
   <path d="M14.9707 5.66406C21.9336 5.66406 27.6953-0.0976562 27.6953-7.05078C27.6953-14.0137 21.9238-19.7754 14.9609-19.7754C8.00781-19.7754 2.25586-14.0137 2.25586-7.05078C2.25586-0.0976562 8.01758 5.66406 14.9707 5.66406ZM14.9707 3.84766C8.93555 3.84766 4.08203-1.01562 4.08203-7.05078C4.08203-13.0957 8.92578-17.9492 14.9609-17.9492C21.0059-17.9492 25.8594-13.0957 25.8691-7.05078C25.8789-1.01562 21.0156 3.84766 14.9707 3.84766ZM10.0586-6.14258L14.0625-6.14258L14.0625-2.12891C14.0625-1.5918 14.4336-1.2207 14.9512-1.2207C15.4883-1.2207 15.8594-1.5918 15.8594-2.12891L15.8594-6.14258L19.8828-6.14258C20.4102-6.14258 20.791-6.51367 20.791-7.03125C20.791-7.56836 20.4199-7.94922 19.8828-7.94922L15.8594-7.94922L15.8594-11.9531C15.8594-12.5098 15.4883-12.8809 14.9512-12.8809C14.4336-12.8809 14.0625-12.5 14.0625-11.9531L14.0625-7.94922L10.0586-7.94922C9.50195-7.94922 9.13086-7.56836 9.13086-7.03125C9.13086-6.51367 9.51172-6.14258 10.0586-6.14258Z"/>
  </g>
  <text style="stroke:none;fill:black;font-family:-apple-system,&quot;SF Pro Display&quot;,&quot;SF Pro Text&quot;,Helvetica,sans-serif;font-weight:bold;" transform="matrix(1 0 0 1 263 1953)">Design Variations</text>
  <text style="stroke:none;fill:black;font-family:-apple-system,&quot;SF Pro Display&quot;,&quot;SF Pro Text&quot;,Helvetica,sans-serif;" transform="matrix(1 0 0 1 263 1971)">Symbols are supported in up to nine weights and three scales.</text>
  <text style="stroke:none;fill:black;font-family:-apple-system,&quot;SF Pro Display&quot;,&quot;SF Pro Text&quot;,Helvetica,sans-serif;" transform="matrix(1 0 0 1 263 1989)">For optimal layout with text and other symbols, vertically align</text>
  <text style="stroke:none;fill:black;font-family:-apple-system,&quot;SF Pro Display&quot;,&quot;SF Pro Text&quot;,Helvetica,sans-serif;" transform="matrix(1 0 0 1 263 2007)">symbols with the adjacent text.</text>
  <line id="" style="fill:none;stroke:#00AEEF;stroke-width:0.5;opacity:1.0;" x1="776" x2="776" y1="1919" y2="1933"/>
  <g id="" transform="matrix(1 0 0 1 776 1933)">
   <path d="M3.31055 0.126953C3.82812 0.126953 4.08203-0.0683594 4.26758-0.605469L5.52734-4.0625L11.2891-4.0625L12.5488-0.605469C12.7344-0.0683594 12.9883 0.126953 13.4961 0.126953C14.0137 0.126953 14.3457-0.185547 14.3457-0.673828C14.3457-0.839844 14.3164-0.986328 14.2383-1.20117L9.6582-13.3887C9.43359-13.9941 9.0332-14.2871 8.4082-14.2871C7.80273-14.2871 7.39258-13.9941 7.17773-13.3984L2.59766-1.19141C2.51953-0.976562 2.49023-0.830078 2.49023-0.664062C2.49023-0.175781 2.80273 0.126953 3.31055 0.126953ZM6.00586-5.53711L8.37891-12.1094L8.42773-12.1094L10.8008-5.53711Z"/>
  </g>
  <line id="" style="fill:none;stroke:#00AEEF;stroke-width:0.5;opacity:1.0;" x1="792.836" x2="792.836" y1="1919" y2="1933"/>
  <text style="stroke:none;fill:black;font-family:-apple-system,&quot;SF Pro Display&quot;,&quot;SF Pro Text&quot;,Helvetica,sans-serif;font-weight:bold;" transform="matrix(1 0 0 1 776 1953)">Margins</text>
  <text style="stroke:none;fill:black;font-family:-apple-system,&quot;SF Pro Display&quot;,&quot;SF Pro Text&quot;,Helvetica,sans-serif;" transform="matrix(1 0 0 1 776 1971)">Leading and trailing margins on the left and right side of each symbol</text>
  <text style="stroke:none;fill:black;font-family:-apple-system,&quot;SF Pro Display&quot;,&quot;SF Pro Text&quot;,Helvetica,sans-serif;" transform="matrix(1 0 0 1 776 1989)">can be adjusted by modifying the x-location of the margin guidelines.</text>
  <text style="stroke:none;fill:black;font-family:-apple-system,&quot;SF Pro Display&quot;,&quot;SF Pro Text&quot;,Helvetica,sans-serif;" transform="matrix(1 0 0 1 776 2007)">Modifications are automatically applied proportionally to all</text>
  <text style="stroke:none;fill:black;font-family:-apple-system,&quot;SF Pro Display&quot;,&quot;SF Pro Text&quot;,Helvetica,sans-serif;" transform="matrix(1 0 0 1 776 2025)">scales and weights.</text>
  <g id="" transform="matrix(1 0 0 1 1289 1933)">
   <path d="M2.8418 1.86523L4.54102 3.57422C5.40039 4.44336 6.38672 4.38477 7.31445 3.35938L17.4902-7.85156C17.7539-7.76367 18.0273-7.7832 18.3398-7.8418L19.4043-8.03711L20.0684-7.36328L20.0293-6.80664C19.9902-6.30859 20.1172-5.92773 20.6055-5.44922L21.3672-4.70703C21.8457-4.22852 22.4609-4.19922 22.9297-4.66797L25.8398-7.58789C26.3086-8.05664 26.2891-8.65234 25.8105-9.13086L25.0391-9.89258C24.5605-10.3711 24.1895-10.5273 23.7109-10.4883L23.1348-10.4395L22.4902-11.0742L22.7344-12.1973C22.8613-12.7637 22.7051-13.2031 22.1191-13.7891L19.9219-15.9766C16.582-19.2969 12.1484-19.2188 9.25781-16.3281C8.83789-15.918 8.80859-15.3418 9.04297-14.9512C9.27734-14.5898 9.73633-14.3555 10.3809-14.5215C11.8457-14.8633 13.3691-14.9219 14.7949-13.9844L14.209-12.5293C14.0137-12.0508 13.9844-11.6504 14.1113-11.2891L3.04688-0.898438C2.06055 0.0195312 1.98242 0.996094 2.8418 1.86523ZM10.752-15.957C13.1836-17.7344 16.4746-17.4316 18.7012-15.2051L21.1328-12.793C21.3672-12.5586 21.4062-12.373 21.3379-12.0312L21.0156-10.5469L22.5195-9.0625L23.5059-9.12109C23.7598-9.13086 23.8379-9.11133 24.0332-8.91602L24.6094-8.33984L22.168-5.89844L21.5918-6.47461C21.3965-6.66992 21.3672-6.74805 21.377-7.01172L21.4453-7.98828L19.9512-9.47266L18.4277-9.21875C18.1055-9.15039 17.959-9.17969 17.7148-9.41406L15.7129-11.416C15.459-11.6504 15.4297-11.8164 15.5859-12.1875L16.4648-14.2773C14.9023-15.7324 12.8711-16.3574 10.8398-15.7617C10.6836-15.7227 10.625-15.8496 10.752-15.957ZM5.27344 2.30469L4.10156 1.14258C3.63281 0.683594 3.74023 0.341797 4.14062-0.0195312L14.9512-10.1953L16.416-8.71094L6.42578 2.27539C6.07422 2.67578 5.74219 2.77344 5.27344 2.30469Z"/>
  </g>
  <text style="stroke:none;fill:black;font-family:-apple-system,&quot;SF Pro Display&quot;,&quot;SF Pro Text&quot;,Helvetica,sans-serif;font-weight:bold;" transform="matrix(1 0 0 1 1289 1953)">Exporting</text>
  <text style="stroke:none;fill:black;font-family:-apple-system,&quot;SF Pro Display&quot;,&quot;SF Pro Text&quot;,Helvetica,sans-serif;" transform="matrix(1 0 0 1 1289 1971)">Symbols should be outlined when exporting to ensure the</text>
  <text style="stroke:none;fill:black;font-family:-apple-system,&quot;SF Pro Display&quot;,&quot;SF Pro Text&quot;,Helvetica,sans-serif;" transform="matrix(1 0 0 1 1289 1989)">design is preserved when submitting to Xcode.</text>
  <text id="template-version" style="stroke:none;fill:black;font-family:-apple-system,&quot;SF Pro Display&quot;,&quot;SF Pro Text&quot;,Helvetica,sans-serif;text-anchor:end;" transform="matrix(1 0 0 1 3036 1933)">Template v.2.0</text>
  <text style="stroke:none;fill:black;font-family:-apple-system,&quot;SF Pro Display&quot;,&quot;SF Pro Text&quot;,Helvetica,sans-serif;text-anchor:end;" transform="matrix(1 0 0 1 3036 1951)">Requires Xcode 12 or greater</text>
  <text style="stroke:none;fill:black;font-family:-apple-system,&quot;SF Pro Display&quot;,&quot;SF Pro Text&quot;,Helvetica,sans-serif;text-anchor:end;" transform="matrix(1 0 0 1 3036 1969)">Generated from square.grid.3x3.fill</text>
  <text style="stroke:none;fill:black;font-family:-apple-system,&quot;SF Pro Display&quot;,&quot;SF Pro Text&quot;,Helvetica,sans-serif;text-anchor:end;" transform="matrix(1 0 0 1 3036 1987)">Typeset at 100 points</text>
  <text style="stroke:none;fill:black;font-family:-apple-system,&quot;SF Pro Display&quot;,&quot;SF Pro Text&quot;,Helvetica,sans-serif;" transform="matrix(1 0 0 1 263 726)">Small</text>
  <text style="stroke:none;fill:black;font-family:-apple-system,&quot;SF Pro Display&quot;,&quot;SF Pro Text&quot;,Helvetica,sans-serif;" transform="matrix(1 0 0 1 263 1156)">Medium</text>
  <text style="stroke:none;fill:black;font-family:-apple-system,&quot;SF Pro Display&quot;,&quot;SF Pro Text&quot;,Helvetica,sans-serif;" transform="matrix(1 0 0 1 263 1586)">Large</text>
 </g>
 <g id="Guides">
  <g id="H-reference" style="fill:#27AAE1;stroke:none;" transform="matrix(1 0 0 1 339 696)">
   <path d="M0.976562 0L3.66211 0L12.9883-24.4629L45.752-24.4629L55.127 0L57.7637 0L30.6152-70.459L28.125-70.459ZM29.3457-67.1387L29.4434-67.1387L44.873-26.709L13.8672-26.709Z"/>
  </g>
  <line id="Baseline-S" style="fill:none;stroke:#27AAE1;opacity:1;stroke-width:0.5;" x1="263" x2="3036" y1="696" y2="696"/>
  <line id="Capline-S" style="fill:none;stroke:#27AAE1;opacity:1;stroke-width:0.5;" x1="263" x2="3036" y1="625.541" y2="625.541"/>
  <g id="H-reference" style="fill:#27AAE1;stroke:none;" transform="matrix(1 0 0 1 339 1126)">
   <path d="M0.976562 0L3.66211 0L12.9883-24.4629L45.752-24.4629L55.127 0L57.7637 0L30.6152-70.459L28.125-70.459ZM29.3457-67.1387L29.4434-67.1387L44.873-26.709L13.8672-26.709Z"/>
  </g>
  <line id="Baseline-M" style="fill:none;stroke:#27AAE1;opacity:1;stroke-width:0.5;" x1="263" x2="3036" y1="1126" y2="1126"/>
  <line id="Capline-M" style="fill:none;stroke:#27AAE1;opacity:1;stroke-width:0.5;" x1="263" x2="3036" y1="1055.54" y2="1055.54"/>
  <g id="H-reference" style="fill:#27AAE1;stroke:none;" transform="matrix(1 0 0 1 339 1556)">
   <path d="M0.976562 0L3.66211 0L12.9883-24.4629L45.752-24.4629L55.127 0L57.7637 0L30.6152-70.459L28.125-70.459ZM29.3457-67.1387L29.4434-67.1387L44.873-26.709L13.8672-26.709Z"/>
  </g>
  <line id="Baseline-L" style="fill:none;stroke:#27AAE1;opacity:1;stroke-width:0.5;" x1="263" x2="3036" y1="1556" y2="1556"/>
  <line id="Capline-L" style="fill:none;stroke:#27AAE1;opacity:1;stroke-width:0.5;" x1="263" x2="3036" y1="1485.54" y2="1485.54"/>
  <line id="left-margin" style="fill:none;stroke:#00AEEF;stroke-width:0.5;opacity:1.0;" x1="1389.52" x2="1389.52" y1="1030.79" y2="1150.12"/>
  <line id="right-margin" style="fill:none;stroke:#00AEEF;stroke-width:0.5;opacity:1.0;" x1="1510.17" x2="1510.17" y1="1030.79" y2="1150.12"/>
 </g>
 <g id="Symbols">
  <g id="Black-L" transform="matrix(1 0 0 1 2845.46 1556)">
   <path d="M29.3457-63.916L44.7266-63.916C52.9297-63.916 58.0566-69.1406 58.0566-77.5391L58.0566-92.2852C58.0566-100.684 52.9297-105.908 44.7266-105.908L29.3457-105.908C21.1426-105.908 16.0645-100.684 16.0645-92.2852L16.0645-77.5391C16.0645-69.1406 21.1426-63.916 29.3457-63.916ZM80.1758-63.916L95.6055-63.916C103.809-63.916 108.887-69.1406 108.887-77.5391L108.887-92.2852C108.887-100.684 103.809-105.908 95.6055-105.908L80.1758-105.908C71.9727-105.908 66.8945-100.684 66.8945-92.2852L66.8945-77.5391C66.8945-69.1406 71.9727-63.916 80.1758-63.916ZM131.104-63.916L146.533-63.916C154.688-63.916 159.814-69.1406 159.814-77.5391L159.814-92.2852C159.814-100.684 154.688-105.908 146.533-105.908L131.104-105.908C122.949-105.908 117.822-100.684 117.822-92.2852L117.822-77.5391C117.822-69.1406 122.949-63.916 131.104-63.916ZM29.3457-14.3555L44.7266-14.3555C52.9297-14.3555 58.0566-19.5312 58.0566-27.9297L58.0566-42.6758C58.0566-51.123 52.9297-56.2988 44.7266-56.2988L29.3457-56.2988C21.1426-56.2988 16.0645-51.123 16.0645-42.6758L16.0645-27.9297C16.0645-19.5312 21.1426-14.3555 29.3457-14.3555ZM80.1758-14.3555L95.6055-14.3555C103.809-14.3555 108.887-19.5312 108.887-27.9297L108.887-42.6758C108.887-51.123 103.809-56.2988 95.6055-56.2988L80.1758-56.2988C71.9727-56.2988 66.8945-51.123 66.8945-42.6758L66.8945-27.9297C66.8945-19.5312 71.9727-14.3555 80.1758-14.3555ZM131.104-14.3555L146.533-14.3555C154.688-14.3555 159.814-19.5312 159.814-27.9297L159.814-42.6758C159.814-51.123 154.688-56.2988 146.533-56.2988L131.104-56.2988C122.949-56.2988 117.822-51.123 117.822-42.6758L117.822-27.9297C117.822-19.5312 122.949-14.3555 131.104-14.3555ZM29.3457 35.2539L44.7266 35.2539C52.9297 35.2539 58.0566 30.0781 58.0566 21.6309L58.0566 6.88477C58.0566-1.51367 52.9297-6.68945 44.7266-6.68945L29.3457-6.68945C21.1426-6.68945 16.0645-1.51367 16.0645 6.88477L16.0645 21.6309C16.0645 30.0781 21.1426 35.2539 29.3457 35.2539ZM80.1758 35.2539L95.6055 35.2539C103.809 35.2539 108.887 30.0781 108.887 21.6309L108.887 6.88477C108.887-1.51367 103.809-6.68945 95.6055-6.68945L80.1758-6.68945C71.9727-6.68945 66.8945-1.51367 66.8945 6.88477L66.8945 21.6309C66.8945 30.0781 71.9727 35.2539 80.1758 35.2539ZM131.104 35.2539L146.533 35.2539C154.688 35.2539 159.814 30.0781 159.814 21.6309L159.814 6.88477C159.814-1.51367 154.688-6.68945 146.533-6.68945L131.104-6.68945C122.949-6.68945 117.822-1.51367 117.822 6.88477L117.822 21.6309C117.822 30.0781 122.949 35.2539 131.104 35.2539Z"/>
  </g>
  <g id="Heavy-L" transform="matrix(1 0 0 1 2551.14 1556)">
   <path d="M28.6621-63.0371L43.8477-63.0371C51.6602-63.0371 56.4453-67.8711 56.4453-75.9277L56.4453-90.5273C56.4453-98.5352 51.6602-103.418 43.8477-103.418L28.6621-103.418C20.8496-103.418 16.0645-98.5352 16.0645-90.5273L16.0645-75.9277C16.0645-67.8711 20.8496-63.0371 28.6621-63.0371ZM77.8809-63.0371L93.1152-63.0371C100.928-63.0371 105.664-67.8711 105.664-75.9277L105.664-90.5273C105.664-98.5352 100.928-103.418 93.1152-103.418L77.8809-103.418C70.0684-103.418 65.332-98.5352 65.332-90.5273L65.332-75.9277C65.332-67.8711 70.0684-63.0371 77.8809-63.0371ZM127.246-63.0371L142.432-63.0371C150.244-63.0371 155.029-67.8711 155.029-75.9277L155.029-90.5273C155.029-98.5352 150.244-103.418 142.432-103.418L127.246-103.418C119.434-103.418 114.648-98.5352 114.648-90.5273L114.648-75.9277C114.648-67.8711 119.434-63.0371 127.246-63.0371ZM28.6621-15.1367L43.8477-15.1367C51.6602-15.1367 56.4453-19.9707 56.4453-27.9785L56.4453-42.627C56.4453-50.6836 51.6602-55.4688 43.8477-55.4688L28.6621-55.4688C20.8496-55.4688 16.0645-50.6836 16.0645-42.627L16.0645-27.9785C16.0645-19.9707 20.8496-15.1367 28.6621-15.1367ZM77.8809-15.1367L93.1152-15.1367C100.928-15.1367 105.664-19.9707 105.664-27.9785L105.664-42.627C105.664-50.6836 100.928-55.4688 93.1152-55.4688L77.8809-55.4688C70.0684-55.4688 65.332-50.6836 65.332-42.627L65.332-27.9785C65.332-19.9707 70.0684-15.1367 77.8809-15.1367ZM127.246-15.1367L142.432-15.1367C150.244-15.1367 155.029-19.9707 155.029-27.9785L155.029-42.627C155.029-50.6836 150.244-55.4688 142.432-55.4688L127.246-55.4688C119.434-55.4688 114.648-50.6836 114.648-42.627L114.648-27.9785C114.648-19.9707 119.434-15.1367 127.246-15.1367ZM28.6621 32.8125L43.8477 32.8125C51.6602 32.8125 56.4453 27.9297 56.4453 19.9219L56.4453 5.32227C56.4453-2.73438 51.6602-7.56836 43.8477-7.56836L28.6621-7.56836C20.8496-7.56836 16.0645-2.73438 16.0645 5.32227L16.0645 19.9219C16.0645 27.9297 20.8496 32.8125 28.6621 32.8125ZM77.8809 32.8125L93.1152 32.8125C100.928 32.8125 105.664 27.9297 105.664 19.9219L105.664 5.32227C105.664-2.73438 100.928-7.56836 93.1152-7.56836L77.8809-7.56836C70.0684-7.56836 65.332-2.73438 65.332 5.32227L65.332 19.9219C65.332 27.9297 70.0684 32.8125 77.8809 32.8125ZM127.246 32.8125L142.432 32.8125C150.244 32.8125 155.029 27.9297 155.029 19.9219L155.029 5.32227C155.029-2.73438 150.244-7.56836 142.432-7.56836L127.246-7.56836C119.434-7.56836 114.648-2.73438 114.648 5.32227L114.648 19.9219C114.648 27.9297 119.434 32.8125 127.246 32.8125Z"/>
  </g>
  <g id="Bold-L" transform="matrix(1 0 0 1 2257.12 1556)">
   <path d="M27.8809-62.0117L42.8711-62.0117C50.2441-62.0117 54.6875-66.4551 54.6875-74.0723L54.6875-88.5254C54.6875-96.1426 50.2441-100.635 42.8711-100.635L27.8809-100.635C20.5078-100.635 16.0645-96.1426 16.0645-88.5254L16.0645-74.0723C16.0645-66.4551 20.5078-62.0117 27.8809-62.0117ZM75.3418-62.0117L90.332-62.0117C97.7051-62.0117 102.1-66.4551 102.1-74.0723L102.1-88.5254C102.1-96.1426 97.7051-100.635 90.332-100.635L75.3418-100.635C67.9688-100.635 63.5254-96.1426 63.5254-88.5254L63.5254-74.0723C63.5254-66.4551 67.9688-62.0117 75.3418-62.0117ZM122.852-62.0117L137.842-62.0117C145.215-62.0117 149.658-66.4551 149.658-74.0723L149.658-88.5254C149.658-96.1426 145.215-100.635 137.842-100.635L122.852-100.635C115.479-100.635 111.035-96.1426 111.035-88.5254L111.035-74.0723C111.035-66.4551 115.479-62.0117 122.852-62.0117ZM27.8809-16.0156L42.8711-16.0156C50.2441-16.0156 54.6875-20.4102 54.6875-28.0273L54.6875-42.5293C54.6875-50.1465 50.2441-54.5898 42.8711-54.5898L27.8809-54.5898C20.5078-54.5898 16.0645-50.1465 16.0645-42.5293L16.0645-28.0273C16.0645-20.4102 20.5078-16.0156 27.8809-16.0156ZM75.3418-16.0156L90.332-16.0156C97.7051-16.0156 102.1-20.4102 102.1-28.0273L102.1-42.5293C102.1-50.1465 97.7051-54.5898 90.332-54.5898L75.3418-54.5898C67.9688-54.5898 63.5254-50.1465 63.5254-42.5293L63.5254-28.0273C63.5254-20.4102 67.9688-16.0156 75.3418-16.0156ZM122.852-16.0156L137.842-16.0156C145.215-16.0156 149.658-20.4102 149.658-28.0273L149.658-42.5293C149.658-50.1465 145.215-54.5898 137.842-54.5898L122.852-54.5898C115.479-54.5898 111.035-50.1465 111.035-42.5293L111.035-28.0273C111.035-20.4102 115.479-16.0156 122.852-16.0156ZM27.8809 30.0293L42.8711 30.0293C50.2441 30.0293 54.6875 25.5859 54.6875 17.9688L54.6875 3.51562C54.6875-4.10156 50.2441-8.59375 42.8711-8.59375L27.8809-8.59375C20.5078-8.59375 16.0645-4.10156 16.0645 3.51562L16.0645 17.9688C16.0645 25.5859 20.5078 30.0293 27.8809 30.0293ZM75.3418 30.0293L90.332 30.0293C97.7051 30.0293 102.1 25.5859 102.1 17.9688L102.1 3.51562C102.1-4.10156 97.7051-8.59375 90.332-8.59375L75.3418-8.59375C67.9688-8.59375 63.5254-4.10156 63.5254 3.51562L63.5254 17.9688C63.5254 25.5859 67.9688 30.0293 75.3418 30.0293ZM122.852 30.0293L137.842 30.0293C145.215 30.0293 149.658 25.5859 149.658 17.9688L149.658 3.51562C149.658-4.10156 145.215-8.59375 137.842-8.59375L122.852-8.59375C115.479-8.59375 111.035-4.10156 111.035 3.51562L111.035 17.9688C111.035 25.5859 115.479 30.0293 122.852 30.0293Z"/>
  </g>
  <g id="Semibold-L" transform="matrix(1 0 0 1 1962.26 1556)">
   <path d="M27.3438-61.3281L42.1387-61.3281C49.2188-61.3281 53.418-65.5273 53.418-72.8516L53.418-87.207C53.418-94.5312 49.2188-98.6816 42.1387-98.6816L27.3438-98.6816C20.2637-98.6816 16.0645-94.5312 16.0645-87.207L16.0645-72.8516C16.0645-65.5273 20.2637-61.3281 27.3438-61.3281ZM73.5352-61.3281L88.4277-61.3281C95.459-61.3281 99.6582-65.5273 99.6582-72.8516L99.6582-87.207C99.6582-94.5312 95.459-98.6816 88.4277-98.6816L73.5352-98.6816C66.4551-98.6816 62.3047-94.5312 62.3047-87.207L62.3047-72.8516C62.3047-65.5273 66.4551-61.3281 73.5352-61.3281ZM119.873-61.3281L134.668-61.3281C141.748-61.3281 145.947-65.5273 145.947-72.8516L145.947-87.207C145.947-94.5312 141.748-98.6816 134.668-98.6816L119.873-98.6816C112.793-98.6816 108.594-94.5312 108.594-87.207L108.594-72.8516C108.594-65.5273 112.793-61.3281 119.873-61.3281ZM27.3438-16.6016L42.1387-16.6016C49.2188-16.6016 53.418-20.752 53.418-28.0762L53.418-42.4805C53.418-49.8047 49.2188-53.9551 42.1387-53.9551L27.3438-53.9551C20.2637-53.9551 16.0645-49.8047 16.0645-42.4805L16.0645-28.0762C16.0645-20.752 20.2637-16.6016 27.3438-16.6016ZM73.5352-16.6016L88.4277-16.6016C95.459-16.6016 99.6582-20.752 99.6582-28.0762L99.6582-42.4805C99.6582-49.8047 95.459-53.9551 88.4277-53.9551L73.5352-53.9551C66.4551-53.9551 62.3047-49.8047 62.3047-42.4805L62.3047-28.0762C62.3047-20.752 66.4551-16.6016 73.5352-16.6016ZM119.873-16.6016L134.668-16.6016C141.748-16.6016 145.947-20.752 145.947-28.0762L145.947-42.4805C145.947-49.8047 141.748-53.9551 134.668-53.9551L119.873-53.9551C112.793-53.9551 108.594-49.8047 108.594-42.4805L108.594-28.0762C108.594-20.752 112.793-16.6016 119.873-16.6016ZM27.3438 28.125L42.1387 28.125C49.2188 28.125 53.418 23.9258 53.418 16.6016L53.418 2.24609C53.418-5.07812 49.2188-9.22852 42.1387-9.22852L27.3438-9.22852C20.2637-9.22852 16.0645-5.07812 16.0645 2.24609L16.0645 16.6016C16.0645 23.9258 20.2637 28.125 27.3438 28.125ZM73.5352 28.125L88.4277 28.125C95.459 28.125 99.6582 23.9258 99.6582 16.6016L99.6582 2.24609C99.6582-5.07812 95.459-9.22852 88.4277-9.22852L73.5352-9.22852C66.4551-9.22852 62.3047-5.07812 62.3047 2.24609L62.3047 16.6016C62.3047 23.9258 66.4551 28.125 73.5352 28.125ZM119.873 28.125L134.668 28.125C141.748 28.125 145.947 23.9258 145.947 16.6016L145.947 2.24609C145.947-5.07812 141.748-9.22852 134.668-9.22852L119.873-9.22852C112.793-9.22852 108.594-5.07812 108.594 2.24609L108.594 16.6016C108.594 23.9258 112.793 28.125 119.873 28.125Z"/>
  </g>
  <g id="Medium-L" transform="matrix(1 0 0 1 1666.94 1556)">
   <path d="M26.9043-60.791L41.6504-60.791C48.4863-60.791 52.4902-64.7949 52.4902-71.875L52.4902-86.1816C52.4902-93.2617 48.4863-97.2168 41.6504-97.2168L26.9043-97.2168C20.0684-97.2168 16.0645-93.2617 16.0645-86.1816L16.0645-71.875C16.0645-64.7949 20.0684-60.791 26.9043-60.791ZM72.2168-60.791L86.9629-60.791C93.7988-60.791 97.7539-64.7949 97.7539-71.875L97.7539-86.1816C97.7539-93.2617 93.7988-97.2168 86.9629-97.2168L72.2168-97.2168C65.3809-97.2168 61.377-93.2617 61.377-86.1816L61.377-71.875C61.377-64.7949 65.3809-60.791 72.2168-60.791ZM117.578-60.791L132.275-60.791C139.111-60.791 143.164-64.7949 143.164-71.875L143.164-86.1816C143.164-93.2617 139.111-97.2168 132.275-97.2168L117.578-97.2168C110.742-97.2168 106.689-93.2617 106.689-86.1816L106.689-71.875C106.689-64.7949 110.742-60.791 117.578-60.791ZM26.9043-17.0898L41.6504-17.0898C48.4863-17.0898 52.4902-20.9961 52.4902-28.125L52.4902-42.4316C52.4902-49.5605 48.4863-53.4668 41.6504-53.4668L26.9043-53.4668C20.0684-53.4668 16.0645-49.5605 16.0645-42.4316L16.0645-28.125C16.0645-20.9961 20.0684-17.0898 26.9043-17.0898ZM72.2168-17.0898L86.9629-17.0898C93.7988-17.0898 97.7539-20.9961 97.7539-28.125L97.7539-42.4316C97.7539-49.5605 93.7988-53.4668 86.9629-53.4668L72.2168-53.4668C65.3809-53.4668 61.377-49.5605 61.377-42.4316L61.377-28.125C61.377-20.9961 65.3809-17.0898 72.2168-17.0898ZM117.578-17.0898L132.275-17.0898C139.111-17.0898 143.164-20.9961 143.164-28.125L143.164-42.4316C143.164-49.5605 139.111-53.4668 132.275-53.4668L117.578-53.4668C110.742-53.4668 106.689-49.5605 106.689-42.4316L106.689-28.125C106.689-20.9961 110.742-17.0898 117.578-17.0898ZM26.9043 26.6602L41.6504 26.6602C48.4863 26.6602 52.4902 22.7051 52.4902 15.5762L52.4902 1.31836C52.4902-5.81055 48.4863-9.76562 41.6504-9.76562L26.9043-9.76562C20.0684-9.76562 16.0645-5.81055 16.0645 1.31836L16.0645 15.5762C16.0645 22.7051 20.0684 26.6602 26.9043 26.6602ZM72.2168 26.6602L86.9629 26.6602C93.7988 26.6602 97.7539 22.7051 97.7539 15.5762L97.7539 1.31836C97.7539-5.81055 93.7988-9.76562 86.9629-9.76562L72.2168-9.76562C65.3809-9.76562 61.377-5.81055 61.377 1.31836L61.377 15.5762C61.377 22.7051 65.3809 26.6602 72.2168 26.6602ZM117.578 26.6602L132.275 26.6602C139.111 26.6602 143.164 22.7051 143.164 15.5762L143.164 1.31836C143.164-5.81055 139.111-9.76562 132.275-9.76562L117.578-9.76562C110.742-9.76562 106.689-5.81055 106.689 1.31836L106.689 15.5762C106.689 22.7051 110.742 26.6602 117.578 26.6602Z"/>
  </g>
  <g id="Regular-L" transform="matrix(1 0 0 1 1372.06 1556)">
   <path d="M26.416-60.1074L40.9668-60.1074C47.5098-60.1074 51.2695-63.8184 51.2695-70.6543L51.2695-84.8145C51.2695-91.6504 47.5098-95.3613 40.9668-95.3613L26.416-95.3613C19.873-95.3613 16.0645-91.6504 16.0645-84.8145L16.0645-70.6543C16.0645-63.8184 19.873-60.1074 26.416-60.1074ZM70.459-60.1074L85.0586-60.1074C91.6016-60.1074 95.3613-63.8184 95.3613-70.6543L95.3613-84.8145C95.3613-91.6504 91.6016-95.3613 85.0586-95.3613L70.459-95.3613C63.916-95.3613 60.1562-91.6504 60.1562-84.8145L60.1562-70.6543C60.1562-63.8184 63.916-60.1074 70.459-60.1074ZM114.6-60.1074L129.15-60.1074C135.693-60.1074 139.502-63.8184 139.502-70.6543L139.502-84.8145C139.502-91.6504 135.693-95.3613 129.15-95.3613L114.6-95.3613C108.057-95.3613 104.248-91.6504 104.248-84.8145L104.248-70.6543C104.248-63.8184 108.057-60.1074 114.6-60.1074ZM26.416-17.6758L40.9668-17.6758C47.5098-17.6758 51.2695-21.3379 51.2695-28.1738L51.2695-42.3828C51.2695-49.2188 47.5098-52.8809 40.9668-52.8809L26.416-52.8809C19.873-52.8809 16.0645-49.2188 16.0645-42.3828L16.0645-28.1738C16.0645-21.3379 19.873-17.6758 26.416-17.6758ZM70.459-17.6758L85.0586-17.6758C91.6016-17.6758 95.3613-21.3379 95.3613-28.1738L95.3613-42.3828C95.3613-49.2188 91.6016-52.8809 85.0586-52.8809L70.459-52.8809C63.916-52.8809 60.1562-49.2188 60.1562-42.3828L60.1562-28.1738C60.1562-21.3379 63.916-17.6758 70.459-17.6758ZM114.6-17.6758L129.15-17.6758C135.693-17.6758 139.502-21.3379 139.502-28.1738L139.502-42.3828C139.502-49.2188 135.693-52.8809 129.15-52.8809L114.6-52.8809C108.057-52.8809 104.248-49.2188 104.248-42.3828L104.248-28.1738C104.248-21.3379 108.057-17.6758 114.6-17.6758ZM26.416 24.8047L40.9668 24.8047C47.5098 24.8047 51.2695 21.0938 51.2695 14.2578L51.2695 0.0976562C51.2695-6.73828 47.5098-10.4492 40.9668-10.4492L26.416-10.4492C19.873-10.4492 16.0645-6.73828 16.0645 0.0976562L16.0645 14.2578C16.0645 21.0938 19.873 24.8047 26.416 24.8047ZM70.459 24.8047L85.0586 24.8047C91.6016 24.8047 95.3613 21.0938 95.3613 14.2578L95.3613 0.0976562C95.3613-6.73828 91.6016-10.4492 85.0586-10.4492L70.459-10.4492C63.916-10.4492 60.1562-6.73828 60.1562 0.0976562L60.1562 14.2578C60.1562 21.0938 63.916 24.8047 70.459 24.8047ZM114.6 24.8047L129.15 24.8047C135.693 24.8047 139.502 21.0938 139.502 14.2578L139.502 0.0976562C139.502-6.73828 135.693-10.4492 129.15-10.4492L114.6-10.4492C108.057-10.4492 104.248-6.73828 104.248 0.0976562L104.248 14.2578C104.248 21.0938 108.057 24.8047 114.6 24.8047Z"/>
  </g>
  <g id="Light-L" transform="matrix(1 0 0 1 1075.45 1556)">
   <path d="M25.5859-60.1074L41.0156-60.1074C47.1191-60.1074 50.5859-63.3301 50.5859-69.7754L50.5859-84.9609C50.5859-91.4062 47.1191-94.6289 41.0156-94.6289L25.5859-94.6289C19.5312-94.6289 16.0645-91.4062 16.0645-84.9609L16.0645-69.7754C16.0645-63.3301 19.5312-60.1074 25.5859-60.1074ZM69.9219-60.1074L85.4004-60.1074C91.4551-60.1074 94.873-63.3301 94.873-69.7754L94.873-84.9609C94.873-91.4062 91.4551-94.6289 85.4004-94.6289L69.9219-94.6289C63.8672-94.6289 60.4492-91.4062 60.4492-84.9609L60.4492-69.7754C60.4492-63.3301 63.8672-60.1074 69.9219-60.1074ZM114.307-60.1074L129.736-60.1074C135.84-60.1074 139.307-63.3301 139.307-69.7754L139.307-84.9609C139.307-91.4062 135.84-94.6289 129.736-94.6289L114.307-94.6289C108.252-94.6289 104.785-91.4062 104.785-84.9609L104.785-69.7754C104.785-63.3301 108.252-60.1074 114.307-60.1074ZM25.5859-17.9688L41.0156-17.9688C47.1191-17.9688 50.5859-21.1426 50.5859-27.5879L50.5859-42.7734C50.5859-49.2188 47.1191-52.4414 41.0156-52.4414L25.5859-52.4414C19.5312-52.4414 16.0645-49.2188 16.0645-42.7734L16.0645-27.5879C16.0645-21.1426 19.5312-17.9688 25.5859-17.9688ZM69.9219-17.9688L85.4004-17.9688C91.4551-17.9688 94.873-21.1426 94.873-27.5879L94.873-42.7734C94.873-49.2188 91.4551-52.4414 85.4004-52.4414L69.9219-52.4414C63.8672-52.4414 60.4492-49.2188 60.4492-42.7734L60.4492-27.5879C60.4492-21.1426 63.8672-17.9688 69.9219-17.9688ZM114.307-17.9688L129.736-17.9688C135.84-17.9688 139.307-21.1426 139.307-27.5879L139.307-42.7734C139.307-49.2188 135.84-52.4414 129.736-52.4414L114.307-52.4414C108.252-52.4414 104.785-49.2188 104.785-42.7734L104.785-27.5879C104.785-21.1426 108.252-17.9688 114.307-17.9688ZM25.5859 24.2676L41.0156 24.2676C47.1191 24.2676 50.5859 21.0449 50.5859 14.5996L50.5859-0.585938C50.5859-7.03125 47.1191-10.2539 41.0156-10.2539L25.5859-10.2539C19.5312-10.2539 16.0645-7.03125 16.0645-0.585938L16.0645 14.5996C16.0645 21.0449 19.5312 24.2676 25.5859 24.2676ZM69.9219 24.2676L85.4004 24.2676C91.4551 24.2676 94.873 21.0449 94.873 14.5996L94.873-0.585938C94.873-7.03125 91.4551-10.2539 85.4004-10.2539L69.9219-10.2539C63.8672-10.2539 60.4492-7.03125 60.4492-0.585938L60.4492 14.5996C60.4492 21.0449 63.8672 24.2676 69.9219 24.2676ZM114.307 24.2676L129.736 24.2676C135.84 24.2676 139.307 21.0449 139.307 14.5996L139.307-0.585938C139.307-7.03125 135.84-10.2539 129.736-10.2539L114.307-10.2539C108.252-10.2539 104.785-7.03125 104.785-0.585938L104.785 14.5996C104.785 21.0449 108.252 24.2676 114.307 24.2676Z"/>
  </g>
  <g id="Thin-L" transform="matrix(1 0 0 1 778.883 1556)">
   <path d="M24.5605-60.1074L41.1133-60.1074C46.582-60.1074 49.6094-62.6953 49.6094-68.6035L49.6094-85.1562C49.6094-91.0645 46.582-93.6523 41.1133-93.6523L24.5605-93.6523C19.0918-93.6523 16.0645-91.0645 16.0645-85.1562L16.0645-68.6035C16.0645-62.6953 19.0918-60.1074 24.5605-60.1074ZM69.2383-60.1074L85.8398-60.1074C91.3086-60.1074 94.2871-62.6953 94.2871-68.6035L94.2871-85.1562C94.2871-91.0645 91.3086-93.6523 85.8398-93.6523L69.2383-93.6523C63.7695-93.6523 60.791-91.0645 60.791-85.1562L60.791-68.6035C60.791-62.6953 63.7695-60.1074 69.2383-60.1074ZM113.965-60.1074L130.518-60.1074C135.986-60.1074 139.014-62.6953 139.014-68.6035L139.014-85.1562C139.014-91.0645 135.986-93.6523 130.518-93.6523L113.965-93.6523C108.496-93.6523 105.469-91.0645 105.469-85.1562L105.469-68.6035C105.469-62.6953 108.496-60.1074 113.965-60.1074ZM24.5605-18.3105L41.1133-18.3105C46.582-18.3105 49.6094-20.8496 49.6094-26.8066L49.6094-43.3105C49.6094-49.2676 46.582-51.8066 41.1133-51.8066L24.5605-51.8066C19.0918-51.8066 16.0645-49.2676 16.0645-43.3105L16.0645-26.8066C16.0645-20.8496 19.0918-18.3105 24.5605-18.3105ZM69.2383-18.3105L85.8398-18.3105C91.3086-18.3105 94.2871-20.8496 94.2871-26.8066L94.2871-43.3105C94.2871-49.2676 91.3086-51.8066 85.8398-51.8066L69.2383-51.8066C63.7695-51.8066 60.791-49.2676 60.791-43.3105L60.791-26.8066C60.791-20.8496 63.7695-18.3105 69.2383-18.3105ZM113.965-18.3105L130.518-18.3105C135.986-18.3105 139.014-20.8496 139.014-26.8066L139.014-43.3105C139.014-49.2676 135.986-51.8066 130.518-51.8066L113.965-51.8066C108.496-51.8066 105.469-49.2676 105.469-43.3105L105.469-26.8066C105.469-20.8496 108.496-18.3105 113.965-18.3105ZM24.5605 23.5352L41.1133 23.5352C46.582 23.5352 49.6094 20.9473 49.6094 15.0391L49.6094-1.51367C49.6094-7.42188 46.582-10.0098 41.1133-10.0098L24.5605-10.0098C19.0918-10.0098 16.0645-7.42188 16.0645-1.51367L16.0645 15.0391C16.0645 20.9473 19.0918 23.5352 24.5605 23.5352ZM69.2383 23.5352L85.8398 23.5352C91.3086 23.5352 94.2871 20.9473 94.2871 15.0391L94.2871-1.51367C94.2871-7.42188 91.3086-10.0098 85.8398-10.0098L69.2383-10.0098C63.7695-10.0098 60.791-7.42188 60.791-1.51367L60.791 15.0391C60.791 20.9473 63.7695 23.5352 69.2383 23.5352ZM113.965 23.5352L130.518 23.5352C135.986 23.5352 139.014 20.9473 139.014 15.0391L139.014-1.51367C139.014-7.42188 135.986-10.0098 130.518-10.0098L113.965-10.0098C108.496-10.0098 105.469-7.42188 105.469-1.51367L105.469 15.0391C105.469 20.9473 108.496 23.5352 113.965 23.5352Z"/>
  </g>
  <g id="Ultralight-L" transform="matrix(1 0 0 1 482.245 1556)">
   <path d="M24.0234-60.1074L41.1621-60.1074C46.3379-60.1074 49.1211-62.3535 49.1211-68.0176L49.1211-85.2539C49.1211-90.918 46.3379-93.1641 41.1621-93.1641L24.0234-93.1641C18.8477-93.1641 16.0645-90.918 16.0645-85.2539L16.0645-68.0176C16.0645-62.3535 18.8477-60.1074 24.0234-60.1074ZM68.8965-60.1074L86.0352-60.1074C91.2109-60.1074 93.9941-62.3535 93.9941-68.0176L93.9941-85.2539C93.9941-90.918 91.2109-93.1641 86.0352-93.1641L68.8965-93.1641C63.7207-93.1641 60.9375-90.918 60.9375-85.2539L60.9375-68.0176C60.9375-62.3535 63.7207-60.1074 68.8965-60.1074ZM113.77-60.1074L130.957-60.1074C136.084-60.1074 138.867-62.3535 138.867-68.0176L138.867-85.2539C138.867-90.918 136.084-93.1641 130.957-93.1641L113.77-93.1641C108.594-93.1641 105.811-90.918 105.811-85.2539L105.811-68.0176C105.811-62.3535 108.594-60.1074 113.77-60.1074ZM24.0234-18.457L41.1621-18.457C46.3379-18.457 49.1211-20.752 49.1211-26.3672L49.1211-43.6035C49.1211-49.2676 46.3379-51.5137 41.1621-51.5137L24.0234-51.5137C18.8477-51.5137 16.0645-49.2676 16.0645-43.6035L16.0645-26.3672C16.0645-20.752 18.8477-18.457 24.0234-18.457ZM68.8965-18.457L86.0352-18.457C91.2109-18.457 93.9941-20.752 93.9941-26.3672L93.9941-43.6035C93.9941-49.2676 91.2109-51.5137 86.0352-51.5137L68.8965-51.5137C63.7207-51.5137 60.9375-49.2676 60.9375-43.6035L60.9375-26.3672C60.9375-20.752 63.7207-18.457 68.8965-18.457ZM113.77-18.457L130.957-18.457C136.084-18.457 138.867-20.752 138.867-26.3672L138.867-43.6035C138.867-49.2676 136.084-51.5137 130.957-51.5137L113.77-51.5137C108.594-51.5137 105.811-49.2676 105.811-43.6035L105.811-26.3672C105.811-20.752 108.594-18.457 113.77-18.457ZM24.0234 23.1934L41.1621 23.1934C46.3379 23.1934 49.1211 20.9473 49.1211 15.2832L49.1211-1.95312C49.1211-7.61719 46.3379-9.86328 41.1621-9.86328L24.0234-9.86328C18.8477-9.86328 16.0645-7.61719 16.0645-1.95312L16.0645 15.2832C16.0645 20.9473 18.8477 23.1934 24.0234 23.1934ZM68.8965 23.1934L86.0352 23.1934C91.2109 23.1934 93.9941 20.9473 93.9941 15.2832L93.9941-1.95312C93.9941-7.61719 91.2109-9.86328 86.0352-9.86328L68.8965-9.86328C63.7207-9.86328 60.9375-7.61719 60.9375-1.95312L60.9375 15.2832C60.9375 20.9473 63.7207 23.1934 68.8965 23.1934ZM113.77 23.1934L130.957 23.1934C136.084 23.1934 138.867 20.9473 138.867 15.2832L138.867-1.95312C138.867-7.61719 136.084-9.86328 130.957-9.86328L113.77-9.86328C108.594-9.86328 105.811-7.61719 105.811-1.95312L105.811 15.2832C105.811 20.9473 108.594 23.1934 113.77 23.1934Z"/>
  </g>
  <g id="Black-M" transform="matrix(1 0 0 1 2862.06 1126)">
   <path d="M23.291-58.6914L35.9375-58.6914C42.5781-58.6914 46.7285-62.9395 46.7285-69.7266L46.7285-81.8848C46.7285-88.7207 42.5781-92.9688 35.9375-92.9688L23.291-92.9688C16.6504-92.9688 12.4512-88.7207 12.4512-81.8848L12.4512-69.7266C12.4512-62.9395 16.6504-58.6914 23.291-58.6914ZM64.9902-58.6914L77.6367-58.6914C84.2285-58.6914 88.4277-62.9395 88.4277-69.7266L88.4277-81.8848C88.4277-88.7207 84.2285-92.9688 77.6367-92.9688L64.9902-92.9688C58.3496-92.9688 54.1504-88.7207 54.1504-81.8848L54.1504-69.7266C54.1504-62.9395 58.3496-58.6914 64.9902-58.6914ZM106.738-58.6914L119.385-58.6914C126.025-58.6914 130.225-62.9395 130.225-69.7266L130.225-81.8848C130.225-88.7207 126.025-92.9688 119.385-92.9688L106.738-92.9688C100.098-92.9688 95.8984-88.7207 95.8984-81.8848L95.8984-69.7266C95.8984-62.9395 100.098-58.6914 106.738-58.6914ZM23.291-18.1152L35.9375-18.1152C42.5781-18.1152 46.7285-22.3633 46.7285-29.1992L46.7285-41.3086C46.7285-48.1445 42.5781-52.3926 35.9375-52.3926L23.291-52.3926C16.6504-52.3926 12.4512-48.1445 12.4512-41.3086L12.4512-29.1992C12.4512-22.3633 16.6504-18.1152 23.291-18.1152ZM64.9902-18.1152L77.6367-18.1152C84.2285-18.1152 88.4277-22.3633 88.4277-29.1992L88.4277-41.3086C88.4277-48.1445 84.2285-52.3926 77.6367-52.3926L64.9902-52.3926C58.3496-52.3926 54.1504-48.1445 54.1504-41.3086L54.1504-29.1992C54.1504-22.3633 58.3496-18.1152 64.9902-18.1152ZM106.738-18.1152L119.385-18.1152C126.025-18.1152 130.225-22.3633 130.225-29.1992L130.225-41.3086C130.225-48.1445 126.025-52.3926 119.385-52.3926L106.738-52.3926C100.098-52.3926 95.8984-48.1445 95.8984-41.3086L95.8984-29.1992C95.8984-22.3633 100.098-18.1152 106.738-18.1152ZM23.291 22.4609L35.9375 22.4609C42.5781 22.4609 46.7285 18.2129 46.7285 11.377L46.7285-0.78125C46.7285-7.56836 42.5781-11.8652 35.9375-11.8652L23.291-11.8652C16.6504-11.8652 12.4512-7.56836 12.4512-0.78125L12.4512 11.377C12.4512 18.2129 16.6504 22.4609 23.291 22.4609ZM64.9902 22.4609L77.6367 22.4609C84.2285 22.4609 88.4277 18.2129 88.4277 11.377L88.4277-0.78125C88.4277-7.56836 84.2285-11.8652 77.6367-11.8652L64.9902-11.8652C58.3496-11.8652 54.1504-7.56836 54.1504-0.78125L54.1504 11.377C54.1504 18.2129 58.3496 22.4609 64.9902 22.4609ZM106.738 22.4609L119.385 22.4609C126.025 22.4609 130.225 18.2129 130.225 11.377L130.225-0.78125C130.225-7.56836 126.025-11.8652 119.385-11.8652L106.738-11.8652C100.098-11.8652 95.8984-7.56836 95.8984-0.78125L95.8984 11.377C95.8984 18.2129 100.098 22.4609 106.738 22.4609Z"/>
  </g>
  <g id="Heavy-M" transform="matrix(1 0 0 1 2567.96 1126)">
   <path d="M22.7051-57.666L34.9121-57.666C41.2598-57.666 45.2148-61.6699 45.2148-68.2129L45.2148-79.9316C45.2148-86.4258 41.2598-90.4297 34.9121-90.4297L22.7051-90.4297C16.4062-90.4297 12.4512-86.4258 12.4512-79.9316L12.4512-68.2129C12.4512-61.6699 16.4062-57.666 22.7051-57.666ZM62.5977-57.666L74.8047-57.666C81.1523-57.666 85.0586-61.6699 85.0586-68.2129L85.0586-79.9316C85.0586-86.4258 81.1523-90.4297 74.8047-90.4297L62.5977-90.4297C56.25-90.4297 52.3438-86.4258 52.3438-79.9316L52.3438-68.2129C52.3438-61.6699 56.25-57.666 62.5977-57.666ZM102.539-57.666L114.746-57.666C121.094-57.666 125-61.6699 125-68.2129L125-79.9316C125-86.4258 121.094-90.4297 114.746-90.4297L102.539-90.4297C96.1914-90.4297 92.2852-86.4258 92.2852-79.9316L92.2852-68.2129C92.2852-61.6699 96.1914-57.666 102.539-57.666ZM22.7051-18.8965L34.9121-18.8965C41.2598-18.8965 45.2148-22.9004 45.2148-29.3945L45.2148-41.1621C45.2148-47.6562 41.2598-51.6602 34.9121-51.6602L22.7051-51.6602C16.4062-51.6602 12.4512-47.6562 12.4512-41.1621L12.4512-29.3945C12.4512-22.9004 16.4062-18.8965 22.7051-18.8965ZM62.5977-18.8965L74.8047-18.8965C81.1523-18.8965 85.0586-22.9004 85.0586-29.3945L85.0586-41.1621C85.0586-47.6562 81.1523-51.6602 74.8047-51.6602L62.5977-51.6602C56.25-51.6602 52.3438-47.6562 52.3438-41.1621L52.3438-29.3945C52.3438-22.9004 56.25-18.8965 62.5977-18.8965ZM102.539-18.8965L114.746-18.8965C121.094-18.8965 125-22.9004 125-29.3945L125-41.1621C125-47.6562 121.094-51.6602 114.746-51.6602L102.539-51.6602C96.1914-51.6602 92.2852-47.6562 92.2852-41.1621L92.2852-29.3945C92.2852-22.9004 96.1914-18.8965 102.539-18.8965ZM22.7051 19.873L34.9121 19.873C41.2598 19.873 45.2148 15.918 45.2148 9.375L45.2148-2.34375C45.2148-8.83789 41.2598-12.8418 34.9121-12.8418L22.7051-12.8418C16.4062-12.8418 12.4512-8.83789 12.4512-2.34375L12.4512 9.375C12.4512 15.918 16.4062 19.873 22.7051 19.873ZM62.5977 19.873L74.8047 19.873C81.1523 19.873 85.0586 15.918 85.0586 9.375L85.0586-2.34375C85.0586-8.83789 81.1523-12.8418 74.8047-12.8418L62.5977-12.8418C56.25-12.8418 52.3438-8.83789 52.3438-2.34375L52.3438 9.375C52.3438 15.918 56.25 19.873 62.5977 19.873ZM102.539 19.873L114.746 19.873C121.094 19.873 125 15.918 125 9.375L125-2.34375C125-8.83789 121.094-12.8418 114.746-12.8418L102.539-12.8418C96.1914-12.8418 92.2852-8.83789 92.2852-2.34375L92.2852 9.375C92.2852 15.918 96.1914 19.873 102.539 19.873Z"/>
  </g>
  <g id="Bold-M" transform="matrix(1 0 0 1 2274.16 1126)">
   <path d="M22.0703-56.5918L33.7891-56.5918C39.7949-56.5918 43.457-60.3027 43.457-66.4551L43.457-77.7344C43.457-83.8867 39.7949-87.5977 33.7891-87.5977L22.0703-87.5977C16.1133-87.5977 12.4512-83.8867 12.4512-77.7344L12.4512-66.4551C12.4512-60.3027 16.1133-56.5918 22.0703-56.5918ZM59.9121-56.5918L71.6797-56.5918C77.6367-56.5918 81.2988-60.3027 81.2988-66.4551L81.2988-77.7344C81.2988-83.8867 77.6367-87.5977 71.6797-87.5977L59.9121-87.5977C53.9551-87.5977 50.293-83.8867 50.293-77.7344L50.293-66.4551C50.293-60.3027 53.9551-56.5918 59.9121-56.5918ZM97.8516-56.5918L109.57-56.5918C115.576-56.5918 119.189-60.3027 119.189-66.4551L119.189-77.7344C119.189-83.8867 115.576-87.5977 109.57-87.5977L97.8516-87.5977C91.8457-87.5977 88.2324-83.8867 88.2324-77.7344L88.2324-66.4551C88.2324-60.3027 91.8457-56.5918 97.8516-56.5918ZM22.0703-19.7754L33.7891-19.7754C39.7949-19.7754 43.457-23.4863 43.457-29.6387L43.457-40.918C43.457-47.1191 39.7949-50.7812 33.7891-50.7812L22.0703-50.7812C16.1133-50.7812 12.4512-47.1191 12.4512-40.918L12.4512-29.6387C12.4512-23.4863 16.1133-19.7754 22.0703-19.7754ZM59.9121-19.7754L71.6797-19.7754C77.6367-19.7754 81.2988-23.4863 81.2988-29.6387L81.2988-40.918C81.2988-47.1191 77.6367-50.7812 71.6797-50.7812L59.9121-50.7812C53.9551-50.7812 50.293-47.1191 50.293-40.918L50.293-29.6387C50.293-23.4863 53.9551-19.7754 59.9121-19.7754ZM97.8516-19.7754L109.57-19.7754C115.576-19.7754 119.189-23.4863 119.189-29.6387L119.189-40.918C119.189-47.1191 115.576-50.7812 109.57-50.7812L97.8516-50.7812C91.8457-50.7812 88.2324-47.1191 88.2324-40.918L88.2324-29.6387C88.2324-23.4863 91.8457-19.7754 97.8516-19.7754ZM22.0703 17.041L33.7891 17.041C39.7949 17.041 43.457 13.3301 43.457 7.17773L43.457-4.10156C43.457-10.3027 39.7949-13.9648 33.7891-13.9648L22.0703-13.9648C16.1133-13.9648 12.4512-10.3027 12.4512-4.10156L12.4512 7.17773C12.4512 13.3301 16.1133 17.041 22.0703 17.041ZM59.9121 17.041L71.6797 17.041C77.6367 17.041 81.2988 13.3301 81.2988 7.17773L81.2988-4.10156C81.2988-10.3027 77.6367-13.9648 71.6797-13.9648L59.9121-13.9648C53.9551-13.9648 50.293-10.3027 50.293-4.10156L50.293 7.17773C50.293 13.3301 53.9551 17.041 59.9121 17.041ZM97.8516 17.041L109.57 17.041C115.576 17.041 119.189 13.3301 119.189 7.17773L119.189-4.10156C119.189-10.3027 115.576-13.9648 109.57-13.9648L97.8516-13.9648C91.8457-13.9648 88.2324-10.3027 88.2324-4.10156L88.2324 7.17773C88.2324 13.3301 91.8457 17.041 97.8516 17.041Z"/>
  </g>
  <g id="Semibold-M" transform="matrix(1 0 0 1 1979.42 1126)">
   <path d="M21.6797-55.8594L33.0566-55.8594C38.7695-55.8594 42.2363-59.3262 42.2363-65.2832L42.2363-76.2207C42.2363-82.1289 38.7695-85.6445 33.0566-85.6445L21.6797-85.6445C15.918-85.6445 12.4512-82.1289 12.4512-76.2207L12.4512-65.2832C12.4512-59.3262 15.918-55.8594 21.6797-55.8594ZM58.1055-55.8594L69.5312-55.8594C75.2441-55.8594 78.7109-59.3262 78.7109-65.2832L78.7109-76.2207C78.7109-82.1289 75.2441-85.6445 69.5312-85.6445L58.1055-85.6445C52.3438-85.6445 48.9258-82.1289 48.9258-76.2207L48.9258-65.2832C48.9258-59.3262 52.3438-55.8594 58.1055-55.8594ZM94.6289-55.8594L106.006-55.8594C111.768-55.8594 115.234-59.3262 115.234-65.2832L115.234-76.2207C115.234-82.1289 111.768-85.6445 106.006-85.6445L94.6289-85.6445C88.8672-85.6445 85.4004-82.1289 85.4004-76.2207L85.4004-65.2832C85.4004-59.3262 88.8672-55.8594 94.6289-55.8594ZM21.6797-20.4102L33.0566-20.4102C38.7695-20.4102 42.2363-23.877 42.2363-29.7852L42.2363-40.7715C42.2363-46.7285 38.7695-50.1953 33.0566-50.1953L21.6797-50.1953C15.918-50.1953 12.4512-46.7285 12.4512-40.7715L12.4512-29.7852C12.4512-23.877 15.918-20.4102 21.6797-20.4102ZM58.1055-20.4102L69.5312-20.4102C75.2441-20.4102 78.7109-23.877 78.7109-29.7852L78.7109-40.7715C78.7109-46.7285 75.2441-50.1953 69.5312-50.1953L58.1055-50.1953C52.3438-50.1953 48.9258-46.7285 48.9258-40.7715L48.9258-29.7852C48.9258-23.877 52.3438-20.4102 58.1055-20.4102ZM94.6289-20.4102L106.006-20.4102C111.768-20.4102 115.234-23.877 115.234-29.7852L115.234-40.7715C115.234-46.7285 111.768-50.1953 106.006-50.1953L94.6289-50.1953C88.8672-50.1953 85.4004-46.7285 85.4004-40.7715L85.4004-29.7852C85.4004-23.877 88.8672-20.4102 94.6289-20.4102ZM21.6797 15.0391L33.0566 15.0391C38.7695 15.0391 42.2363 11.5723 42.2363 5.61523L42.2363-5.32227C42.2363-11.2793 38.7695-14.7461 33.0566-14.7461L21.6797-14.7461C15.918-14.7461 12.4512-11.2793 12.4512-5.32227L12.4512 5.61523C12.4512 11.5723 15.918 15.0391 21.6797 15.0391ZM58.1055 15.0391L69.5312 15.0391C75.2441 15.0391 78.7109 11.5723 78.7109 5.61523L78.7109-5.32227C78.7109-11.2793 75.2441-14.7461 69.5312-14.7461L58.1055-14.7461C52.3438-14.7461 48.9258-11.2793 48.9258-5.32227L48.9258 5.61523C48.9258 11.5723 52.3438 15.0391 58.1055 15.0391ZM94.6289 15.0391L106.006 15.0391C111.768 15.0391 115.234 11.5723 115.234 5.61523L115.234-5.32227C115.234-11.2793 111.768-14.7461 106.006-14.7461L94.6289-14.7461C88.8672-14.7461 85.4004-11.2793 85.4004-5.32227L85.4004 5.61523C85.4004 11.5723 88.8672 15.0391 94.6289 15.0391Z"/>
  </g>
  <g id="Medium-M" transform="matrix(1 0 0 1 1684.25 1126)">
   <path d="M21.3379-55.2734L32.4707-55.2734C38.0371-55.2734 41.3574-58.5938 41.3574-64.3555L41.3574-75.0488C41.3574-80.8105 38.0371-84.1797 32.4707-84.1797L21.3379-84.1797C15.7715-84.1797 12.4512-80.8105 12.4512-75.0488L12.4512-64.3555C12.4512-58.5938 15.7715-55.2734 21.3379-55.2734ZM56.6895-55.2734L67.8711-55.2734C73.4375-55.2734 76.709-58.5938 76.709-64.3555L76.709-75.0488C76.709-80.8105 73.4375-84.1797 67.8711-84.1797L56.6895-84.1797C51.123-84.1797 47.8516-80.8105 47.8516-75.0488L47.8516-64.3555C47.8516-58.5938 51.123-55.2734 56.6895-55.2734ZM92.1875-55.2734L103.271-55.2734C108.838-55.2734 112.158-58.5938 112.158-64.3555L112.158-75.0488C112.158-80.8105 108.838-84.1797 103.271-84.1797L92.1875-84.1797C86.6211-84.1797 83.3008-80.8105 83.3008-75.0488L83.3008-64.3555C83.3008-58.5938 86.6211-55.2734 92.1875-55.2734ZM21.3379-20.8984L32.4707-20.8984C38.0371-20.8984 41.3574-24.1699 41.3574-29.9316L41.3574-40.6738C41.3574-46.4355 38.0371-49.7559 32.4707-49.7559L21.3379-49.7559C15.7715-49.7559 12.4512-46.4355 12.4512-40.6738L12.4512-29.9316C12.4512-24.1699 15.7715-20.8984 21.3379-20.8984ZM56.6895-20.8984L67.8711-20.8984C73.4375-20.8984 76.709-24.1699 76.709-29.9316L76.709-40.6738C76.709-46.4355 73.4375-49.7559 67.8711-49.7559L56.6895-49.7559C51.123-49.7559 47.8516-46.4355 47.8516-40.6738L47.8516-29.9316C47.8516-24.1699 51.123-20.8984 56.6895-20.8984ZM92.1875-20.8984L103.271-20.8984C108.838-20.8984 112.158-24.1699 112.158-29.9316L112.158-40.6738C112.158-46.4355 108.838-49.7559 103.271-49.7559L92.1875-49.7559C86.6211-49.7559 83.3008-46.4355 83.3008-40.6738L83.3008-29.9316C83.3008-24.1699 86.6211-20.8984 92.1875-20.8984ZM21.3379 13.5254L32.4707 13.5254C38.0371 13.5254 41.3574 10.2051 41.3574 4.44336L41.3574-6.25C41.3574-12.0117 38.0371-15.332 32.4707-15.332L21.3379-15.332C15.7715-15.332 12.4512-12.0117 12.4512-6.25L12.4512 4.44336C12.4512 10.2051 15.7715 13.5254 21.3379 13.5254ZM56.6895 13.5254L67.8711 13.5254C73.4375 13.5254 76.709 10.2051 76.709 4.44336L76.709-6.25C76.709-12.0117 73.4375-15.332 67.8711-15.332L56.6895-15.332C51.123-15.332 47.8516-12.0117 47.8516-6.25L47.8516 4.44336C47.8516 10.2051 51.123 13.5254 56.6895 13.5254ZM92.1875 13.5254L103.271 13.5254C108.838 13.5254 112.158 10.2051 112.158 4.44336L112.158-6.25C112.158-12.0117 108.838-15.332 103.271-15.332L92.1875-15.332C86.6211-15.332 83.3008-12.0117 83.3008-6.25L83.3008 4.44336C83.3008 10.2051 86.6211 13.5254 92.1875 13.5254Z"/>
  </g>
  <g id="Regular-M" transform="matrix(1 0 0 1 1389.52 1126)">
   <path d="M20.8984-54.541L31.6895-54.541C37.0117-54.541 40.1367-57.666 40.1367-63.1836L40.1367-73.584C40.1367-79.1016 37.0117-82.2266 31.6895-82.2266L20.8984-82.2266C15.5762-82.2266 12.4512-79.1016 12.4512-73.584L12.4512-63.1836C12.4512-57.666 15.5762-54.541 20.8984-54.541ZM54.8828-54.541L65.7227-54.541C71.0449-54.541 74.1211-57.666 74.1211-63.1836L74.1211-73.584C74.1211-79.1016 71.0449-82.2266 65.7227-82.2266L54.8828-82.2266C49.5605-82.2266 46.4844-79.1016 46.4844-73.584L46.4844-63.1836C46.4844-57.666 49.5605-54.541 54.8828-54.541ZM88.9648-54.541L99.7559-54.541C105.078-54.541 108.203-57.666 108.203-63.1836L108.203-73.584C108.203-79.1016 105.078-82.2266 99.7559-82.2266L88.9648-82.2266C83.6426-82.2266 80.5176-79.1016 80.5176-73.584L80.5176-63.1836C80.5176-57.666 83.6426-54.541 88.9648-54.541ZM20.8984-21.4844L31.6895-21.4844C37.0117-21.4844 40.1367-24.5605 40.1367-30.0781L40.1367-40.5273C40.1367-46.0449 37.0117-49.1699 31.6895-49.1699L20.8984-49.1699C15.5762-49.1699 12.4512-46.0449 12.4512-40.5273L12.4512-30.0781C12.4512-24.5605 15.5762-21.4844 20.8984-21.4844ZM54.8828-21.4844L65.7227-21.4844C71.0449-21.4844 74.1211-24.5605 74.1211-30.0781L74.1211-40.5273C74.1211-46.0449 71.0449-49.1699 65.7227-49.1699L54.8828-49.1699C49.5605-49.1699 46.4844-46.0449 46.4844-40.5273L46.4844-30.0781C46.4844-24.5605 49.5605-21.4844 54.8828-21.4844ZM88.9648-21.4844L99.7559-21.4844C105.078-21.4844 108.203-24.5605 108.203-30.0781L108.203-40.5273C108.203-46.0449 105.078-49.1699 99.7559-49.1699L88.9648-49.1699C83.6426-49.1699 80.5176-46.0449 80.5176-40.5273L80.5176-30.0781C80.5176-24.5605 83.6426-21.4844 88.9648-21.4844ZM20.8984 11.5723L31.6895 11.5723C37.0117 11.5723 40.1367 8.44727 40.1367 2.92969L40.1367-7.4707C40.1367-12.9883 37.0117-16.1133 31.6895-16.1133L20.8984-16.1133C15.5762-16.1133 12.4512-12.9883 12.4512-7.4707L12.4512 2.92969C12.4512 8.44727 15.5762 11.5723 20.8984 11.5723ZM54.8828 11.5723L65.7227 11.5723C71.0449 11.5723 74.1211 8.44727 74.1211 2.92969L74.1211-7.4707C74.1211-12.9883 71.0449-16.1133 65.7227-16.1133L54.8828-16.1133C49.5605-16.1133 46.4844-12.9883 46.4844-7.4707L46.4844 2.92969C46.4844 8.44727 49.5605 11.5723 54.8828 11.5723ZM88.9648 11.5723L99.7559 11.5723C105.078 11.5723 108.203 8.44727 108.203 2.92969L108.203-7.4707C108.203-12.9883 105.078-16.1133 99.7559-16.1133L88.9648-16.1133C83.6426-16.1133 80.5176-12.9883 80.5176-7.4707L80.5176 2.92969C80.5176 8.44727 83.6426 11.5723 88.9648 11.5723Z"/>
  </g>
  <g id="Light-M" transform="matrix(1 0 0 1 1092.88 1126)">
   <path d="M20.2148-54.541L31.7871-54.541C36.6699-54.541 39.502-57.2266 39.502-62.4023L39.502-73.7305C39.502-78.8574 36.6699-81.5918 31.7871-81.5918L20.2148-81.5918C15.2832-81.5918 12.4512-78.8574 12.4512-73.7305L12.4512-62.4023C12.4512-57.2266 15.2832-54.541 20.2148-54.541ZM54.4434-54.541L66.0156-54.541C70.9473-54.541 73.7305-57.2266 73.7305-62.4023L73.7305-73.7305C73.7305-78.8574 70.9473-81.5918 66.0156-81.5918L54.4434-81.5918C49.5117-81.5918 46.7285-78.8574 46.7285-73.7305L46.7285-62.4023C46.7285-57.2266 49.5117-54.541 54.4434-54.541ZM88.7207-54.541L100.293-54.541C105.225-54.541 108.057-57.2266 108.057-62.4023L108.057-73.7305C108.057-78.8574 105.225-81.5918 100.293-81.5918L88.7207-81.5918C83.7891-81.5918 80.957-78.8574 80.957-73.7305L80.957-62.4023C80.957-57.2266 83.7891-54.541 88.7207-54.541ZM20.2148-21.7285L31.7871-21.7285C36.6699-21.7285 39.502-24.4141 39.502-29.541L39.502-40.918C39.502-46.0938 36.6699-48.7305 31.7871-48.7305L20.2148-48.7305C15.2832-48.7305 12.4512-46.0938 12.4512-40.918L12.4512-29.541C12.4512-24.4141 15.2832-21.7285 20.2148-21.7285ZM54.4434-21.7285L66.0156-21.7285C70.9473-21.7285 73.7305-24.4141 73.7305-29.541L73.7305-40.918C73.7305-46.0938 70.9473-48.7305 66.0156-48.7305L54.4434-48.7305C49.5117-48.7305 46.7285-46.0938 46.7285-40.918L46.7285-29.541C46.7285-24.4141 49.5117-21.7285 54.4434-21.7285ZM88.7207-21.7285L100.293-21.7285C105.225-21.7285 108.057-24.4141 108.057-29.541L108.057-40.918C108.057-46.0938 105.225-48.7305 100.293-48.7305L88.7207-48.7305C83.7891-48.7305 80.957-46.0938 80.957-40.918L80.957-29.541C80.957-24.4141 83.7891-21.7285 88.7207-21.7285ZM20.2148 11.084L31.7871 11.084C36.6699 11.084 39.502 8.39844 39.502 3.22266L39.502-8.05664C39.502-13.2324 36.6699-15.9668 31.7871-15.9668L20.2148-15.9668C15.2832-15.9668 12.4512-13.2324 12.4512-8.05664L12.4512 3.22266C12.4512 8.39844 15.2832 11.084 20.2148 11.084ZM54.4434 11.084L66.0156 11.084C70.9473 11.084 73.7305 8.39844 73.7305 3.22266L73.7305-8.05664C73.7305-13.2324 70.9473-15.9668 66.0156-15.9668L54.4434-15.9668C49.5117-15.9668 46.7285-13.2324 46.7285-8.05664L46.7285 3.22266C46.7285 8.39844 49.5117 11.084 54.4434 11.084ZM88.7207 11.084L100.293 11.084C105.225 11.084 108.057 8.39844 108.057 3.22266L108.057-8.05664C108.057-13.2324 105.225-15.9668 100.293-15.9668L88.7207-15.9668C83.7891-15.9668 80.957-13.2324 80.957-8.05664L80.957 3.22266C80.957 8.39844 83.7891 11.084 88.7207 11.084Z"/>
  </g>
  <g id="Thin-M" transform="matrix(1 0 0 1 796.29 1126)">
   <path d="M19.2383-54.541L31.8359-54.541C36.2305-54.541 38.6719-56.6406 38.6719-61.377L38.6719-73.877C38.6719-78.5645 36.2305-80.7129 31.8359-80.7129L19.2383-80.7129C14.8926-80.7129 12.4512-78.5645 12.4512-73.877L12.4512-61.377C12.4512-56.6406 14.8926-54.541 19.2383-54.541ZM53.8086-54.541L66.4062-54.541C70.8008-54.541 73.1934-56.6406 73.1934-61.377L73.1934-73.877C73.1934-78.5645 70.8008-80.7129 66.4062-80.7129L53.8086-80.7129C49.4629-80.7129 47.0215-78.5645 47.0215-73.877L47.0215-61.377C47.0215-56.6406 49.4629-54.541 53.8086-54.541ZM88.3789-54.541L100.977-54.541C105.371-54.541 107.812-56.6406 107.812-61.377L107.812-73.877C107.812-78.5645 105.371-80.7129 100.977-80.7129L88.3789-80.7129C84.0332-80.7129 81.5918-78.5645 81.5918-73.877L81.5918-61.377C81.5918-56.6406 84.0332-54.541 88.3789-54.541ZM19.2383-22.0215L31.8359-22.0215C36.2305-22.0215 38.6719-24.1699 38.6719-28.8574L38.6719-41.4062C38.6719-46.0938 36.2305-48.2422 31.8359-48.2422L19.2383-48.2422C14.8926-48.2422 12.4512-46.0938 12.4512-41.4062L12.4512-28.8574C12.4512-24.1699 14.8926-22.0215 19.2383-22.0215ZM53.8086-22.0215L66.4062-22.0215C70.8008-22.0215 73.1934-24.1699 73.1934-28.8574L73.1934-41.4062C73.1934-46.0938 70.8008-48.2422 66.4062-48.2422L53.8086-48.2422C49.4629-48.2422 47.0215-46.0938 47.0215-41.4062L47.0215-28.8574C47.0215-24.1699 49.4629-22.0215 53.8086-22.0215ZM88.3789-22.0215L100.977-22.0215C105.371-22.0215 107.812-24.1699 107.812-28.8574L107.812-41.4062C107.812-46.0938 105.371-48.2422 100.977-48.2422L88.3789-48.2422C84.0332-48.2422 81.5918-46.0938 81.5918-41.4062L81.5918-28.8574C81.5918-24.1699 84.0332-22.0215 88.3789-22.0215ZM19.2383 10.4492L31.8359 10.4492C36.2305 10.4492 38.6719 8.34961 38.6719 3.61328L38.6719-8.88672C38.6719-13.5742 36.2305-15.7227 31.8359-15.7227L19.2383-15.7227C14.8926-15.7227 12.4512-13.5742 12.4512-8.88672L12.4512 3.61328C12.4512 8.34961 14.8926 10.4492 19.2383 10.4492ZM53.8086 10.4492L66.4062 10.4492C70.8008 10.4492 73.1934 8.34961 73.1934 3.61328L73.1934-8.88672C73.1934-13.5742 70.8008-15.7227 66.4062-15.7227L53.8086-15.7227C49.4629-15.7227 47.0215-13.5742 47.0215-8.88672L47.0215 3.61328C47.0215 8.34961 49.4629 10.4492 53.8086 10.4492ZM88.3789 10.4492L100.977 10.4492C105.371 10.4492 107.812 8.34961 107.812 3.61328L107.812-8.88672C107.812-13.5742 105.371-15.7227 100.977-15.7227L88.3789-15.7227C84.0332-15.7227 81.5918-13.5742 81.5918-8.88672L81.5918 3.61328C81.5918 8.34961 84.0332 10.4492 88.3789 10.4492Z"/>
  </g>
  <g id="Ultralight-M" transform="matrix(1 0 0 1 499.653 1126)">
   <path d="M18.75-54.541L31.8848-54.541C35.9863-54.541 38.2324-56.3477 38.2324-60.8398L38.2324-73.9746C38.2324-78.418 35.9863-80.2734 31.8848-80.2734L18.75-80.2734C14.6973-80.2734 12.4512-78.418 12.4512-73.9746L12.4512-60.8398C12.4512-56.3477 14.6973-54.541 18.75-54.541ZM53.5156-54.541L66.6504-54.541C70.7031-54.541 72.9492-56.3477 72.9492-60.8398L72.9492-73.9746C72.9492-78.418 70.7031-80.2734 66.6504-80.2734L53.5156-80.2734C49.4141-80.2734 47.168-78.418 47.168-73.9746L47.168-60.8398C47.168-56.3477 49.4141-54.541 53.5156-54.541ZM88.2324-54.541L101.367-54.541C105.469-54.541 107.666-56.3477 107.666-60.8398L107.666-73.9746C107.666-78.418 105.469-80.2734 101.367-80.2734L88.2324-80.2734C84.1309-80.2734 81.8848-78.418 81.8848-73.9746L81.8848-60.8398C81.8848-56.3477 84.1309-54.541 88.2324-54.541ZM18.75-22.168L31.8848-22.168C35.9863-22.168 38.2324-24.0234 38.2324-28.5156L38.2324-41.6504C38.2324-46.0938 35.9863-47.9492 31.8848-47.9492L18.75-47.9492C14.6973-47.9492 12.4512-46.0938 12.4512-41.6504L12.4512-28.5156C12.4512-24.0234 14.6973-22.168 18.75-22.168ZM53.5156-22.168L66.6504-22.168C70.7031-22.168 72.9492-24.0234 72.9492-28.5156L72.9492-41.6504C72.9492-46.0938 70.7031-47.9492 66.6504-47.9492L53.5156-47.9492C49.4141-47.9492 47.168-46.0938 47.168-41.6504L47.168-28.5156C47.168-24.0234 49.4141-22.168 53.5156-22.168ZM88.2324-22.168L101.367-22.168C105.469-22.168 107.666-24.0234 107.666-28.5156L107.666-41.6504C107.666-46.0938 105.469-47.9492 101.367-47.9492L88.2324-47.9492C84.1309-47.9492 81.8848-46.0938 81.8848-41.6504L81.8848-28.5156C81.8848-24.0234 84.1309-22.168 88.2324-22.168ZM18.75 10.1562L31.8848 10.1562C35.9863 10.1562 38.2324 8.30078 38.2324 3.85742L38.2324-9.32617C38.2324-13.7695 35.9863-15.625 31.8848-15.625L18.75-15.625C14.6973-15.625 12.4512-13.7695 12.4512-9.32617L12.4512 3.85742C12.4512 8.30078 14.6973 10.1562 18.75 10.1562ZM53.5156 10.1562L66.6504 10.1562C70.7031 10.1562 72.9492 8.30078 72.9492 3.85742L72.9492-9.32617C72.9492-13.7695 70.7031-15.625 66.6504-15.625L53.5156-15.625C49.4141-15.625 47.168-13.7695 47.168-9.32617L47.168 3.85742C47.168 8.30078 49.4141 10.1562 53.5156 10.1562ZM88.2324 10.1562L101.367 10.1562C105.469 10.1562 107.666 8.30078 107.666 3.85742L107.666-9.32617C107.666-13.7695 105.469-15.625 101.367-15.625L88.2324-15.625C84.1309-15.625 81.8848-13.7695 81.8848-9.32617L81.8848 3.85742C81.8848 8.30078 84.1309 10.1562 88.2324 10.1562Z"/>
  </g>
  <g id="Black-S" transform="matrix(1 0 0 1 2877.71 696)">
   <path d="M18.2129-53.5156L28.0762-53.5156C33.252-53.5156 36.5234-56.8359 36.5234-62.1582L36.5234-71.6309C36.5234-76.9531 33.252-80.2734 28.0762-80.2734L18.2129-80.2734C13.0371-80.2734 9.76562-76.9531 9.76562-71.6309L9.76562-62.1582C9.76562-56.8359 13.0371-53.5156 18.2129-53.5156ZM50.7324-53.5156L60.5957-53.5156C65.7715-53.5156 69.043-56.8359 69.043-62.1582L69.043-71.6309C69.043-76.9531 65.7715-80.2734 60.5957-80.2734L50.7324-80.2734C45.5566-80.2734 42.2852-76.9531 42.2852-71.6309L42.2852-62.1582C42.2852-56.8359 45.5566-53.5156 50.7324-53.5156ZM83.3008-53.5156L93.1641-53.5156C98.3398-53.5156 101.611-56.8359 101.611-62.1582L101.611-71.6309C101.611-76.9531 98.3398-80.2734 93.1641-80.2734L83.3008-80.2734C78.125-80.2734 74.8535-76.9531 74.8535-71.6309L74.8535-62.1582C74.8535-56.8359 78.125-53.5156 83.3008-53.5156ZM18.2129-21.875L28.0762-21.875C33.252-21.875 36.5234-25.1953 36.5234-30.5176L36.5234-39.9902C36.5234-45.3125 33.252-48.6328 28.0762-48.6328L18.2129-48.6328C13.0371-48.6328 9.76562-45.3125 9.76562-39.9902L9.76562-30.5176C9.76562-25.1953 13.0371-21.875 18.2129-21.875ZM50.7324-21.875L60.5957-21.875C65.7715-21.875 69.043-25.1953 69.043-30.5176L69.043-39.9902C69.043-45.3125 65.7715-48.6328 60.5957-48.6328L50.7324-48.6328C45.5566-48.6328 42.2852-45.3125 42.2852-39.9902L42.2852-30.5176C42.2852-25.1953 45.5566-21.875 50.7324-21.875ZM83.3008-21.875L93.1641-21.875C98.3398-21.875 101.611-25.1953 101.611-30.5176L101.611-39.9902C101.611-45.3125 98.3398-48.6328 93.1641-48.6328L83.3008-48.6328C78.125-48.6328 74.8535-45.3125 74.8535-39.9902L74.8535-30.5176C74.8535-25.1953 78.125-21.875 83.3008-21.875ZM18.2129 9.76562L28.0762 9.76562C33.252 9.76562 36.5234 6.44531 36.5234 1.12305L36.5234-8.34961C36.5234-13.6719 33.252-16.9922 28.0762-16.9922L18.2129-16.9922C13.0371-16.9922 9.76562-13.6719 9.76562-8.34961L9.76562 1.12305C9.76562 6.44531 13.0371 9.76562 18.2129 9.76562ZM50.7324 9.76562L60.5957 9.76562C65.7715 9.76562 69.043 6.44531 69.043 1.12305L69.043-8.34961C69.043-13.6719 65.7715-16.9922 60.5957-16.9922L50.7324-16.9922C45.5566-16.9922 42.2852-13.6719 42.2852-8.34961L42.2852 1.12305C42.2852 6.44531 45.5566 9.76562 50.7324 9.76562ZM83.3008 9.76562L93.1641 9.76562C98.3398 9.76562 101.611 6.44531 101.611 1.12305L101.611-8.34961C101.611-13.6719 98.3398-16.9922 93.1641-16.9922L83.3008-16.9922C78.125-16.9922 74.8535-13.6719 74.8535-8.34961L74.8535 1.12305C74.8535 6.44531 78.125 9.76562 83.3008 9.76562Z"/>
  </g>
  <g id="Heavy-S" transform="matrix(1 0 0 1 2582.98 696)">
   <path d="M17.8711-52.7832L27.2949-52.7832C32.2754-52.7832 35.4004-55.957 35.4004-61.0352L35.4004-70.1172C35.4004-75.2441 32.2754-78.418 27.2949-78.418L17.8711-78.418C12.8906-78.418 9.76562-75.2441 9.76562-70.1172L9.76562-61.0352C9.76562-55.957 12.8906-52.7832 17.8711-52.7832ZM48.9746-52.7832L58.3984-52.7832C63.4277-52.7832 66.5039-55.957 66.5039-61.0352L66.5039-70.1172C66.5039-75.2441 63.4277-78.418 58.3984-78.418L48.9746-78.418C43.9941-78.418 40.8691-75.2441 40.8691-70.1172L40.8691-61.0352C40.8691-55.957 43.9941-52.7832 48.9746-52.7832ZM80.127-52.7832L89.5508-52.7832C94.5312-52.7832 97.6562-55.957 97.6562-61.0352L97.6562-70.1172C97.6562-75.2441 94.5312-78.418 89.5508-78.418L80.127-78.418C75.1465-78.418 72.0215-75.2441 72.0215-70.1172L72.0215-61.0352C72.0215-55.957 75.1465-52.7832 80.127-52.7832ZM17.8711-22.4609L27.2949-22.4609C32.2754-22.4609 35.4004-25.6348 35.4004-30.7617L35.4004-39.7949C35.4004-44.9219 32.2754-48.0957 27.2949-48.0957L17.8711-48.0957C12.8906-48.0957 9.76562-44.9219 9.76562-39.7949L9.76562-30.7617C9.76562-25.6348 12.8906-22.4609 17.8711-22.4609ZM48.9746-22.4609L58.3984-22.4609C63.4277-22.4609 66.5039-25.6348 66.5039-30.7617L66.5039-39.7949C66.5039-44.9219 63.4277-48.0957 58.3984-48.0957L48.9746-48.0957C43.9941-48.0957 40.8691-44.9219 40.8691-39.7949L40.8691-30.7617C40.8691-25.6348 43.9941-22.4609 48.9746-22.4609ZM80.127-22.4609L89.5508-22.4609C94.5312-22.4609 97.6562-25.6348 97.6562-30.7617L97.6562-39.7949C97.6562-44.9219 94.5312-48.0957 89.5508-48.0957L80.127-48.0957C75.1465-48.0957 72.0215-44.9219 72.0215-39.7949L72.0215-30.7617C72.0215-25.6348 75.1465-22.4609 80.127-22.4609ZM17.8711 7.86133L27.2949 7.86133C32.2754 7.86133 35.4004 4.6875 35.4004-0.439453L35.4004-9.47266C35.4004-14.5996 32.2754-17.7734 27.2949-17.7734L17.8711-17.7734C12.8906-17.7734 9.76562-14.5996 9.76562-9.47266L9.76562-0.439453C9.76562 4.6875 12.8906 7.86133 17.8711 7.86133ZM48.9746 7.86133L58.3984 7.86133C63.4277 7.86133 66.5039 4.6875 66.5039-0.439453L66.5039-9.47266C66.5039-14.5996 63.4277-17.7734 58.3984-17.7734L48.9746-17.7734C43.9941-17.7734 40.8691-14.5996 40.8691-9.47266L40.8691-0.439453C40.8691 4.6875 43.9941 7.86133 48.9746 7.86133ZM80.127 7.86133L89.5508 7.86133C94.5312 7.86133 97.6562 4.6875 97.6562-0.439453L97.6562-9.47266C97.6562-14.5996 94.5312-17.7734 89.5508-17.7734L80.127-17.7734C75.1465-17.7734 72.0215-14.5996 72.0215-9.47266L72.0215-0.439453C72.0215 4.6875 75.1465 7.86133 80.127 7.86133Z"/>
  </g>
  <g id="Bold-S" transform="matrix(1 0 0 1 2288.46 696)">
   <path d="M17.4805-51.9531L26.4648-51.9531C31.2012-51.9531 34.1309-54.9316 34.1309-59.8145L34.1309-68.4082C34.1309-73.3398 31.2012-76.3184 26.4648-76.3184L17.4805-76.3184C12.6953-76.3184 9.76562-73.3398 9.76562-68.4082L9.76562-59.8145C9.76562-54.9316 12.6953-51.9531 17.4805-51.9531ZM46.9727-51.9531L55.957-51.9531C60.7422-51.9531 63.6719-54.9316 63.6719-59.8145L63.6719-68.4082C63.6719-73.3398 60.7422-76.3184 55.957-76.3184L46.9727-76.3184C42.1875-76.3184 39.3066-73.3398 39.3066-68.4082L39.3066-59.8145C39.3066-54.9316 42.1875-51.9531 46.9727-51.9531ZM76.5625-51.9531L85.5469-51.9531C90.332-51.9531 93.2617-54.9316 93.2617-59.8145L93.2617-68.4082C93.2617-73.3398 90.332-76.3184 85.5469-76.3184L76.5625-76.3184C71.7773-76.3184 68.8477-73.3398 68.8477-68.4082L68.8477-59.8145C68.8477-54.9316 71.7773-51.9531 76.5625-51.9531ZM17.4805-23.0957L26.4648-23.0957C31.2012-23.0957 34.1309-26.0742 34.1309-31.0059L34.1309-39.5996C34.1309-44.5312 31.2012-47.4609 26.4648-47.4609L17.4805-47.4609C12.6953-47.4609 9.76562-44.5312 9.76562-39.5996L9.76562-31.0059C9.76562-26.0742 12.6953-23.0957 17.4805-23.0957ZM46.9727-23.0957L55.957-23.0957C60.7422-23.0957 63.6719-26.0742 63.6719-31.0059L63.6719-39.5996C63.6719-44.5312 60.7422-47.4609 55.957-47.4609L46.9727-47.4609C42.1875-47.4609 39.3066-44.5312 39.3066-39.5996L39.3066-31.0059C39.3066-26.0742 42.1875-23.0957 46.9727-23.0957ZM76.5625-23.0957L85.5469-23.0957C90.332-23.0957 93.2617-26.0742 93.2617-31.0059L93.2617-39.5996C93.2617-44.5312 90.332-47.4609 85.5469-47.4609L76.5625-47.4609C71.7773-47.4609 68.8477-44.5312 68.8477-39.5996L68.8477-31.0059C68.8477-26.0742 71.7773-23.0957 76.5625-23.0957ZM17.4805 5.71289L26.4648 5.71289C31.2012 5.71289 34.1309 2.73438 34.1309-2.19727L34.1309-10.7422C34.1309-15.6738 31.2012-18.6523 26.4648-18.6523L17.4805-18.6523C12.6953-18.6523 9.76562-15.6738 9.76562-10.7422L9.76562-2.19727C9.76562 2.73438 12.6953 5.71289 17.4805 5.71289ZM46.9727 5.71289L55.957 5.71289C60.7422 5.71289 63.6719 2.73438 63.6719-2.19727L63.6719-10.7422C63.6719-15.6738 60.7422-18.6523 55.957-18.6523L46.9727-18.6523C42.1875-18.6523 39.3066-15.6738 39.3066-10.7422L39.3066-2.19727C39.3066 2.73438 42.1875 5.71289 46.9727 5.71289ZM76.5625 5.71289L85.5469 5.71289C90.332 5.71289 93.2617 2.73438 93.2617-2.19727L93.2617-10.7422C93.2617-15.6738 90.332-18.6523 85.5469-18.6523L76.5625-18.6523C71.7773-18.6523 68.8477-15.6738 68.8477-10.7422L68.8477-2.19727C68.8477 2.73438 71.7773 5.71289 76.5625 5.71289Z"/>
  </g>
  <g id="Semibold-S" transform="matrix(1 0 0 1 1993.29 696)">
   <path d="M17.1875-51.3672L25.8301-51.3672C30.4688-51.3672 33.3008-54.248 33.3008-58.9844L33.3008-67.2363C33.3008-72.0215 30.4688-74.8535 25.8301-74.8535L17.1875-74.8535C12.5488-74.8535 9.76562-72.0215 9.76562-67.2363L9.76562-58.9844C9.76562-54.248 12.5488-51.3672 17.1875-51.3672ZM45.6055-51.3672L54.2969-51.3672C58.9355-51.3672 61.7188-54.248 61.7188-58.9844L61.7188-67.2363C61.7188-72.0215 58.9355-74.8535 54.2969-74.8535L45.6055-74.8535C40.9668-74.8535 38.2324-72.0215 38.2324-67.2363L38.2324-58.9844C38.2324-54.248 40.9668-51.3672 45.6055-51.3672ZM74.1211-51.3672L82.7637-51.3672C87.4023-51.3672 90.1855-54.248 90.1855-58.9844L90.1855-67.2363C90.1855-72.0215 87.4023-74.8535 82.7637-74.8535L74.1211-74.8535C69.4824-74.8535 66.6992-72.0215 66.6992-67.2363L66.6992-58.9844C66.6992-54.248 69.4824-51.3672 74.1211-51.3672ZM17.1875-23.584L25.8301-23.584C30.4688-23.584 33.3008-26.416 33.3008-31.1523L33.3008-39.4531C33.3008-44.2383 30.4688-47.0703 25.8301-47.0703L17.1875-47.0703C12.5488-47.0703 9.76562-44.2383 9.76562-39.4531L9.76562-31.1523C9.76562-26.416 12.5488-23.584 17.1875-23.584ZM45.6055-23.584L54.2969-23.584C58.9355-23.584 61.7188-26.416 61.7188-31.1523L61.7188-39.4531C61.7188-44.2383 58.9355-47.0703 54.2969-47.0703L45.6055-47.0703C40.9668-47.0703 38.2324-44.2383 38.2324-39.4531L38.2324-31.1523C38.2324-26.416 40.9668-23.584 45.6055-23.584ZM74.1211-23.584L82.7637-23.584C87.4023-23.584 90.1855-26.416 90.1855-31.1523L90.1855-39.4531C90.1855-44.2383 87.4023-47.0703 82.7637-47.0703L74.1211-47.0703C69.4824-47.0703 66.6992-44.2383 66.6992-39.4531L66.6992-31.1523C66.6992-26.416 69.4824-23.584 74.1211-23.584ZM17.1875 4.24805L25.8301 4.24805C30.4688 4.24805 33.3008 1.36719 33.3008-3.36914L33.3008-11.6211C33.3008-16.4062 30.4688-19.2871 25.8301-19.2871L17.1875-19.2871C12.5488-19.2871 9.76562-16.4062 9.76562-11.6211L9.76562-3.36914C9.76562 1.36719 12.5488 4.24805 17.1875 4.24805ZM45.6055 4.24805L54.2969 4.24805C58.9355 4.24805 61.7188 1.36719 61.7188-3.36914L61.7188-11.6211C61.7188-16.4062 58.9355-19.2871 54.2969-19.2871L45.6055-19.2871C40.9668-19.2871 38.2324-16.4062 38.2324-11.6211L38.2324-3.36914C38.2324 1.36719 40.9668 4.24805 45.6055 4.24805ZM74.1211 4.24805L82.7637 4.24805C87.4023 4.24805 90.1855 1.36719 90.1855-3.36914L90.1855-11.6211C90.1855-16.4062 87.4023-19.2871 82.7637-19.2871L74.1211-19.2871C69.4824-19.2871 66.6992-16.4062 66.6992-11.6211L66.6992-3.36914C66.6992 1.36719 69.4824 4.24805 74.1211 4.24805Z"/>
  </g>
  <g id="Medium-S" transform="matrix(1 0 0 1 1697.73 696)">
   <path d="M16.9922-50.9277L25.3906-50.9277C29.9316-50.9277 32.6172-53.7109 32.6172-58.3496L32.6172-66.3574C32.6172-70.9961 29.9316-73.7793 25.3906-73.7793L16.9922-73.7793C12.5-73.7793 9.76562-70.9961 9.76562-66.3574L9.76562-58.3496C9.76562-53.7109 12.5-50.9277 16.9922-50.9277ZM44.5801-50.9277L53.0273-50.9277C57.5684-50.9277 60.2051-53.7109 60.2051-58.3496L60.2051-66.3574C60.2051-70.9961 57.5684-73.7793 53.0273-73.7793L44.5801-73.7793C40.0879-73.7793 37.4023-70.9961 37.4023-66.3574L37.4023-58.3496C37.4023-53.7109 40.0879-50.9277 44.5801-50.9277ZM72.2656-50.9277L80.6641-50.9277C85.2051-50.9277 87.8906-53.7109 87.8906-58.3496L87.8906-66.3574C87.8906-70.9961 85.2051-73.7793 80.6641-73.7793L72.2656-73.7793C67.7246-73.7793 65.0391-70.9961 65.0391-66.3574L65.0391-58.3496C65.0391-53.7109 67.7246-50.9277 72.2656-50.9277ZM16.9922-23.9258L25.3906-23.9258C29.9316-23.9258 32.6172-26.6602 32.6172-31.2988L32.6172-39.3555C32.6172-43.9941 29.9316-46.7285 25.3906-46.7285L16.9922-46.7285C12.5-46.7285 9.76562-43.9941 9.76562-39.3555L9.76562-31.2988C9.76562-26.6602 12.5-23.9258 16.9922-23.9258ZM44.5801-23.9258L53.0273-23.9258C57.5684-23.9258 60.2051-26.6602 60.2051-31.2988L60.2051-39.3555C60.2051-43.9941 57.5684-46.7285 53.0273-46.7285L44.5801-46.7285C40.0879-46.7285 37.4023-43.9941 37.4023-39.3555L37.4023-31.2988C37.4023-26.6602 40.0879-23.9258 44.5801-23.9258ZM72.2656-23.9258L80.6641-23.9258C85.2051-23.9258 87.8906-26.6602 87.8906-31.2988L87.8906-39.3555C87.8906-43.9941 85.2051-46.7285 80.6641-46.7285L72.2656-46.7285C67.7246-46.7285 65.0391-43.9941 65.0391-39.3555L65.0391-31.2988C65.0391-26.6602 67.7246-23.9258 72.2656-23.9258ZM16.9922 3.125L25.3906 3.125C29.9316 3.125 32.6172 0.341797 32.6172-4.29688L32.6172-12.3047C32.6172-16.9434 29.9316-19.7266 25.3906-19.7266L16.9922-19.7266C12.5-19.7266 9.76562-16.9434 9.76562-12.3047L9.76562-4.29688C9.76562 0.341797 12.5 3.125 16.9922 3.125ZM44.5801 3.125L53.0273 3.125C57.5684 3.125 60.2051 0.341797 60.2051-4.29688L60.2051-12.3047C60.2051-16.9434 57.5684-19.7266 53.0273-19.7266L44.5801-19.7266C40.0879-19.7266 37.4023-16.9434 37.4023-12.3047L37.4023-4.29688C37.4023 0.341797 40.0879 3.125 44.5801 3.125ZM72.2656 3.125L80.6641 3.125C85.2051 3.125 87.8906 0.341797 87.8906-4.29688L87.8906-12.3047C87.8906-16.9434 85.2051-19.7266 80.6641-19.7266L72.2656-19.7266C67.7246-19.7266 65.0391-16.9434 65.0391-12.3047L65.0391-4.29688C65.0391 0.341797 67.7246 3.125 72.2656 3.125Z"/>
  </g>
  <g id="Regular-S" transform="matrix(1 0 0 1 1402.53 696)">
   <path d="M16.748-50.3418L24.8047-50.3418C29.1992-50.3418 31.7871-53.0273 31.7871-57.5195L31.7871-65.1855C31.7871-69.6777 29.1992-72.3633 24.8047-72.3633L16.748-72.3633C12.3535-72.3633 9.76562-69.6777 9.76562-65.1855L9.76562-57.5195C9.76562-53.0273 12.3535-50.3418 16.748-50.3418ZM43.2617-50.3418L51.3672-50.3418C55.7617-50.3418 58.3008-53.0273 58.3008-57.5195L58.3008-65.1855C58.3008-69.6777 55.7617-72.3633 51.3672-72.3633L43.2617-72.3633C38.8672-72.3633 36.3281-69.6777 36.3281-65.1855L36.3281-57.5195C36.3281-53.0273 38.8672-50.3418 43.2617-50.3418ZM69.8242-50.3418L77.9297-50.3418C82.2754-50.3418 84.8633-53.0273 84.8633-57.5195L84.8633-65.1855C84.8633-69.6777 82.2754-72.3633 77.9297-72.3633L69.8242-72.3633C65.4785-72.3633 62.8418-69.6777 62.8418-65.1855L62.8418-57.5195C62.8418-53.0273 65.4785-50.3418 69.8242-50.3418ZM16.748-24.3652L24.8047-24.3652C29.1992-24.3652 31.7871-26.9531 31.7871-31.4453L31.7871-39.209C31.7871-43.7012 29.1992-46.3379 24.8047-46.3379L16.748-46.3379C12.3535-46.3379 9.76562-43.7012 9.76562-39.209L9.76562-31.4453C9.76562-26.9531 12.3535-24.3652 16.748-24.3652ZM43.2617-24.3652L51.3672-24.3652C55.7617-24.3652 58.3008-26.9531 58.3008-31.4453L58.3008-39.209C58.3008-43.7012 55.7617-46.3379 51.3672-46.3379L43.2617-46.3379C38.8672-46.3379 36.3281-43.7012 36.3281-39.209L36.3281-31.4453C36.3281-26.9531 38.8672-24.3652 43.2617-24.3652ZM69.8242-24.3652L77.9297-24.3652C82.2754-24.3652 84.8633-26.9531 84.8633-31.4453L84.8633-39.209C84.8633-43.7012 82.2754-46.3379 77.9297-46.3379L69.8242-46.3379C65.4785-46.3379 62.8418-43.7012 62.8418-39.209L62.8418-31.4453C62.8418-26.9531 65.4785-24.3652 69.8242-24.3652ZM16.748 1.66016L24.8047 1.66016C29.1992 1.66016 31.7871-0.976562 31.7871-5.46875L31.7871-13.1836C31.7871-17.6758 29.1992-20.3125 24.8047-20.3125L16.748-20.3125C12.3535-20.3125 9.76562-17.6758 9.76562-13.1836L9.76562-5.46875C9.76562-0.976562 12.3535 1.66016 16.748 1.66016ZM43.2617 1.66016L51.3672 1.66016C55.7617 1.66016 58.3008-0.976562 58.3008-5.46875L58.3008-13.1836C58.3008-17.6758 55.7617-20.3125 51.3672-20.3125L43.2617-20.3125C38.8672-20.3125 36.3281-17.6758 36.3281-13.1836L36.3281-5.46875C36.3281-0.976562 38.8672 1.66016 43.2617 1.66016ZM69.8242 1.66016L77.9297 1.66016C82.2754 1.66016 84.8633-0.976562 84.8633-5.46875L84.8633-13.1836C84.8633-17.6758 82.2754-20.3125 77.9297-20.3125L69.8242-20.3125C65.4785-20.3125 62.8418-17.6758 62.8418-13.1836L62.8418-5.46875C62.8418-0.976562 65.4785 1.66016 69.8242 1.66016Z"/>
  </g>
  <g id="Light-S" transform="matrix(1 0 0 1 1105.89 696)">
   <path d="M16.1133-50.3418L24.8535-50.3418C28.9062-50.3418 31.2012-52.6367 31.2012-56.7871L31.2012-65.332C31.2012-69.4824 28.9062-71.7773 24.8535-71.7773L16.1133-71.7773C12.1094-71.7773 9.76562-69.4824 9.76562-65.332L9.76562-56.7871C9.76562-52.6367 12.1094-50.3418 16.1133-50.3418ZM42.8223-50.3418L51.6113-50.3418C55.6641-50.3418 57.959-52.6367 57.959-56.7871L57.959-65.332C57.959-69.4824 55.6641-71.7773 51.6113-71.7773L42.8223-71.7773C38.8184-71.7773 36.5234-69.4824 36.5234-65.332L36.5234-56.7871C36.5234-52.6367 38.8184-50.3418 42.8223-50.3418ZM69.6289-50.3418L78.3691-50.3418C82.373-50.3418 84.7168-52.6367 84.7168-56.7871L84.7168-65.332C84.7168-69.4824 82.373-71.7773 78.3691-71.7773L69.6289-71.7773C65.625-71.7773 63.2812-69.4824 63.2812-65.332L63.2812-56.7871C63.2812-52.6367 65.625-50.3418 69.6289-50.3418ZM16.1133-24.5605L24.8535-24.5605C28.9062-24.5605 31.2012-26.8066 31.2012-31.0059L31.2012-39.5508C31.2012-43.7012 28.9062-45.9961 24.8535-45.9961L16.1133-45.9961C12.1094-45.9961 9.76562-43.7012 9.76562-39.5508L9.76562-31.0059C9.76562-26.8066 12.1094-24.5605 16.1133-24.5605ZM42.8223-24.5605L51.6113-24.5605C55.6641-24.5605 57.959-26.8066 57.959-31.0059L57.959-39.5508C57.959-43.7012 55.6641-45.9961 51.6113-45.9961L42.8223-45.9961C38.8184-45.9961 36.5234-43.7012 36.5234-39.5508L36.5234-31.0059C36.5234-26.8066 38.8184-24.5605 42.8223-24.5605ZM69.6289-24.5605L78.3691-24.5605C82.373-24.5605 84.7168-26.8066 84.7168-31.0059L84.7168-39.5508C84.7168-43.7012 82.373-45.9961 78.3691-45.9961L69.6289-45.9961C65.625-45.9961 63.2812-43.7012 63.2812-39.5508L63.2812-31.0059C63.2812-26.8066 65.625-24.5605 69.6289-24.5605ZM16.1133 1.26953L24.8535 1.26953C28.9062 1.26953 31.2012-1.02539 31.2012-5.22461L31.2012-13.7207C31.2012-17.9199 28.9062-20.166 24.8535-20.166L16.1133-20.166C12.1094-20.166 9.76562-17.9199 9.76562-13.7207L9.76562-5.22461C9.76562-1.02539 12.1094 1.26953 16.1133 1.26953ZM42.8223 1.26953L51.6113 1.26953C55.6641 1.26953 57.959-1.02539 57.959-5.22461L57.959-13.7207C57.959-17.9199 55.6641-20.166 51.6113-20.166L42.8223-20.166C38.8184-20.166 36.5234-17.9199 36.5234-13.7207L36.5234-5.22461C36.5234-1.02539 38.8184 1.26953 42.8223 1.26953ZM69.6289 1.26953L78.3691 1.26953C82.373 1.26953 84.7168-1.02539 84.7168-5.22461L84.7168-13.7207C84.7168-17.9199 82.373-20.166 78.3691-20.166L69.6289-20.166C65.625-20.166 63.2812-17.9199 63.2812-13.7207L63.2812-5.22461C63.2812-1.02539 65.625 1.26953 69.6289 1.26953Z"/>
  </g>
  <g id="Thin-S" transform="matrix(1 0 0 1 809.279 696)">
   <path d="M15.2832-50.3418L24.9512-50.3418C28.4668-50.3418 30.4688-52.1484 30.4688-55.9082L30.4688-65.4785C30.4688-69.2383 28.4668-71.0449 24.9512-71.0449L15.2832-71.0449C11.7676-71.0449 9.76562-69.2383 9.76562-65.4785L9.76562-55.9082C9.76562-52.1484 11.7676-50.3418 15.2832-50.3418ZM42.2852-50.3418L51.9531-50.3418C55.5176-50.3418 57.4707-52.1484 57.4707-55.9082L57.4707-65.4785C57.4707-69.2383 55.5176-71.0449 51.9531-71.0449L42.2852-71.0449C38.7695-71.0449 36.7676-69.2383 36.7676-65.4785L36.7676-55.9082C36.7676-52.1484 38.7695-50.3418 42.2852-50.3418ZM69.3359-50.3418L79.0039-50.3418C82.5195-50.3418 84.5215-52.1484 84.5215-55.9082L84.5215-65.4785C84.5215-69.2383 82.5195-71.0449 79.0039-71.0449L69.3359-71.0449C65.7715-71.0449 63.8184-69.2383 63.8184-65.4785L63.8184-55.9082C63.8184-52.1484 65.7715-50.3418 69.3359-50.3418ZM15.2832-24.8047L24.9512-24.8047C28.4668-24.8047 30.4688-26.6113 30.4688-30.3711L30.4688-39.9414C30.4688-43.75 28.4668-45.5078 24.9512-45.5078L15.2832-45.5078C11.7676-45.5078 9.76562-43.75 9.76562-39.9414L9.76562-30.3711C9.76562-26.6113 11.7676-24.8047 15.2832-24.8047ZM42.2852-24.8047L51.9531-24.8047C55.5176-24.8047 57.4707-26.6113 57.4707-30.3711L57.4707-39.9414C57.4707-43.75 55.5176-45.5078 51.9531-45.5078L42.2852-45.5078C38.7695-45.5078 36.7676-43.75 36.7676-39.9414L36.7676-30.3711C36.7676-26.6113 38.7695-24.8047 42.2852-24.8047ZM69.3359-24.8047L79.0039-24.8047C82.5195-24.8047 84.5215-26.6113 84.5215-30.3711L84.5215-39.9414C84.5215-43.75 82.5195-45.5078 79.0039-45.5078L69.3359-45.5078C65.7715-45.5078 63.8184-43.75 63.8184-39.9414L63.8184-30.3711C63.8184-26.6113 65.7715-24.8047 69.3359-24.8047ZM15.2832 0.683594L24.9512 0.683594C28.4668 0.683594 30.4688-1.07422 30.4688-4.88281L30.4688-14.4531C30.4688-18.2129 28.4668-20.0195 24.9512-20.0195L15.2832-20.0195C11.7676-20.0195 9.76562-18.2129 9.76562-14.4531L9.76562-4.88281C9.76562-1.07422 11.7676 0.683594 15.2832 0.683594ZM42.2852 0.683594L51.9531 0.683594C55.5176 0.683594 57.4707-1.07422 57.4707-4.88281L57.4707-14.4531C57.4707-18.2129 55.5176-20.0195 51.9531-20.0195L42.2852-20.0195C38.7695-20.0195 36.7676-18.2129 36.7676-14.4531L36.7676-4.88281C36.7676-1.07422 38.7695 0.683594 42.2852 0.683594ZM69.3359 0.683594L79.0039 0.683594C82.5195 0.683594 84.5215-1.07422 84.5215-4.88281L84.5215-14.4531C84.5215-18.2129 82.5195-20.0195 79.0039-20.0195L69.3359-20.0195C65.7715-20.0195 63.8184-18.2129 63.8184-14.4531L63.8184-4.88281C63.8184-1.07422 65.7715 0.683594 69.3359 0.683594Z"/>
  </g>
  <g id="Ultralight-S" transform="matrix(1 0 0 1 512.616 696)">
   <path d="M14.8438-50.3418L25-50.3418C28.2715-50.3418 30.0781-51.8555 30.0781-55.4199L30.0781-65.5762C30.0781-69.1406 28.2715-70.6543 25-70.6543L14.8438-70.6543C11.5723-70.6543 9.76562-69.1406 9.76562-65.5762L9.76562-55.4199C9.76562-51.8555 11.5723-50.3418 14.8438-50.3418ZM41.9922-50.3418L52.1484-50.3418C55.4199-50.3418 57.2266-51.8555 57.2266-55.4199L57.2266-65.5762C57.2266-69.1406 55.4199-70.6543 52.1484-70.6543L41.9922-70.6543C38.7207-70.6543 36.9141-69.1406 36.9141-65.5762L36.9141-55.4199C36.9141-51.8555 38.7207-50.3418 41.9922-50.3418ZM69.1895-50.3418L79.3457-50.3418C82.6172-50.3418 84.4238-51.8555 84.4238-55.4199L84.4238-65.5762C84.4238-69.1406 82.6172-70.6543 79.3457-70.6543L69.1895-70.6543C65.918-70.6543 64.1113-69.1406 64.1113-65.5762L64.1113-55.4199C64.1113-51.8555 65.918-50.3418 69.1895-50.3418ZM14.8438-24.9512L25-24.9512C28.2715-24.9512 30.0781-26.5137 30.0781-30.0293L30.0781-40.1855C30.0781-43.75 28.2715-45.2637 25-45.2637L14.8438-45.2637C11.5723-45.2637 9.76562-43.75 9.76562-40.1855L9.76562-30.0293C9.76562-26.5137 11.5723-24.9512 14.8438-24.9512ZM41.9922-24.9512L52.1484-24.9512C55.4199-24.9512 57.2266-26.5137 57.2266-30.0293L57.2266-40.1855C57.2266-43.75 55.4199-45.2637 52.1484-45.2637L41.9922-45.2637C38.7207-45.2637 36.9141-43.75 36.9141-40.1855L36.9141-30.0293C36.9141-26.5137 38.7207-24.9512 41.9922-24.9512ZM69.1895-24.9512L79.3457-24.9512C82.6172-24.9512 84.4238-26.5137 84.4238-30.0293L84.4238-40.1855C84.4238-43.75 82.6172-45.2637 79.3457-45.2637L69.1895-45.2637C65.918-45.2637 64.1113-43.75 64.1113-40.1855L64.1113-30.0293C64.1113-26.5137 65.918-24.9512 69.1895-24.9512ZM14.8438 0.390625L25 0.390625C28.2715 0.390625 30.0781-1.12305 30.0781-4.6875L30.0781-14.7949C30.0781-18.3594 28.2715-19.873 25-19.873L14.8438-19.873C11.5723-19.873 9.76562-18.3594 9.76562-14.7949L9.76562-4.6875C9.76562-1.12305 11.5723 0.390625 14.8438 0.390625ZM41.9922 0.390625L52.1484 0.390625C55.4199 0.390625 57.2266-1.12305 57.2266-4.6875L57.2266-14.7949C57.2266-18.3594 55.4199-19.873 52.1484-19.873L41.9922-19.873C38.7207-19.873 36.9141-18.3594 36.9141-14.7949L36.9141-4.6875C36.9141-1.12305 38.7207 0.390625 41.9922 0.390625ZM69.1895 0.390625L79.3457 0.390625C82.6172 0.390625 84.4238-1.12305 84.4238-4.6875L84.4238-14.7949C84.4238-18.3594 82.6172-19.873 79.3457-19.873L69.1895-19.873C65.918-19.873 64.1113-18.3594 64.1113-14.7949L64.1113-4.6875C64.1113-1.12305 65.918 0.390625 69.1895 0.390625Z"/>
  </g>
 </g>
</svg>
